 <svg width="32" height="30" viewBox="0 0 32 30" fill="none" xmlns="http://www.w3.org/2000/svg">
                <g clip-path="url(#clip0_2937_6807)">
                    <path
                        d="M28.2793 0.100586H3.39351C1.48466 0.100586 0 1.54412 0 3.2501V26.3466C0 28.1181 1.48466 29.496 3.39351 29.496H13.0792V19.5226H8.62519V14.7983H13.0792V11.2551C13.0792 7.18702 15.695 4.89047 19.6541 4.89047C21.6337 4.89047 23.6132 5.21855 23.6132 5.21855V9.22108H21.4217C19.2299 9.22108 18.5229 10.4678 18.5229 11.7801V14.7983H23.4012L22.6234 19.5226H18.5229V29.496H28.2793C30.1175 29.496 31.6727 28.1181 31.6727 26.3466V3.2501C31.6727 1.54412 30.1175 0.100586 28.2793 0.100586Z"
                        fill="#535658" />
                </g>
                <defs>
                    <clipPath id="clip0_2937_6807">
                        <rect width="32" height="29.7982" fill="white" transform="translate(0 0.100586)" />
                    </clipPath>
                </defs>
            </svg>