<svg width="32" height="28" viewBox="0 0 32 28" fill="none" xmlns="http://www.w3.org/2000/svg">
                <path
                    d="M8.3381 27.6216V9.14542H2.1603V27.6216H8.3381ZM5.21598 6.67368C7.20882 6.67368 8.80308 5.12886 8.80308 3.27506C8.80308 1.48304 7.20882 0 5.21598 0C3.28958 0 1.69531 1.48304 1.69531 3.27506C1.69531 5.12886 3.28958 6.67368 5.21598 6.67368ZM31.3886 27.6216H31.455V17.4875C31.455 12.5441 30.2592 8.71288 24.015 8.71288C21.0258 8.71288 19.033 10.2577 18.1694 11.679H18.103V9.14542H12.1909V27.6216H18.3687V18.4762C18.3687 16.0663 18.8337 13.7799 22.0222 13.7799C25.2108 13.7799 25.2772 16.4988 25.2772 18.6616V27.6216H31.3886Z"
                    fill="#535658" />
            </svg>