 <svg width="32" height="20" viewBox="0 0 32 20" fill="none" xmlns="http://www.w3.org/2000/svg">
                <g clip-path="url(#clip0_2937_6817)">
                    <path
                        d="M17.0717 9.85001L29.7595 0.240234H2.22266L14.9104 9.85001C15.552 10.3265 16.4296 10.3265 17.0711 9.85001H17.0717Z"
                        fill="#c32d37" />
                    <path
                        d="M31.8782 1.44141L18.4303 11.6411C17.7282 12.1717 16.8725 12.4587 15.9924 12.4587C15.1123 12.4587 14.2565 12.1717 13.5546 11.6411L0.106597 1.44141C0.0386707 1.62337 0.00247889 1.81574 0 2.0101V17.9179C0 18.9001 0.794284 19.6977 1.77698 19.7018H30.2086C30.6831 19.7038 31.1388 19.5164 31.475 19.1817C31.8111 18.8471 32 18.3919 32 17.9179V2.0241C31.9946 1.8243 31.9534 1.62696 31.879 1.44153L31.8782 1.44141Z"
                        fill="#c32d37" />
                </g>
                <defs>
                    <clipPath id="clip0_2937_6817">
                        <rect width="32" height="19.52" fill="white" transform="translate(0 0.240234)" />
                    </clipPath>
                </defs>
            </svg>