 <svg width="32" height="32" viewBox="0 0 32 32" fill="none" xmlns="http://www.w3.org/2000/svg">
                <g clip-path="url(#clip0_2937_6813)">
                    <path
                        d="M26.4016 6.4V1.6C26.4016 0.717562 25.684 0 24.8016 0H7.20156C6.31912 0 5.60156 0.717562 5.60156 1.6V6.4H26.4016Z"
                        fill="#545658" />
                    <path
                        d="M5.60156 19.2002V30.4002C5.60156 31.2826 6.31912 32.0002 7.20156 32.0002H24.8016C25.684 32.0002 26.4016 31.2826 26.4016 30.4002V19.2002H5.60156ZM22.8016 29.6002H9.20156C8.98043 29.6002 8.80126 29.4213 8.80126 29.1999C8.80126 28.9784 8.98013 28.7996 9.20156 28.7996H22.8016C23.0227 28.7996 23.2019 28.9784 23.2019 29.1999C23.2019 29.4213 23.023 29.6002 22.8016 29.6002ZM22.8016 27.2002H9.20156C8.98043 27.2002 8.80126 27.0213 8.80126 26.7999C8.80126 26.5784 8.98013 26.3996 9.20156 26.3996H22.8016C23.0227 26.3996 23.2019 26.5784 23.2019 26.7999C23.2019 27.0213 23.023 27.2002 22.8016 27.2002ZM22.8016 24.8002H9.20156C8.98043 24.8002 8.80126 24.6213 8.80126 24.3999C8.80126 24.1784 8.98013 23.9996 9.20156 23.9996H22.8016C23.0227 23.9996 23.2019 24.1784 23.2019 24.3999C23.2019 24.6213 23.023 24.8002 22.8016 24.8002ZM22.8016 22.4002H9.20156C8.98043 22.4002 8.80126 22.2213 8.80126 21.9999C8.80126 21.7784 8.98013 21.5996 9.20156 21.5996H22.8016C23.0227 21.5996 23.2019 21.7784 23.2019 21.9999C23.2019 22.2213 23.023 22.4002 22.8016 22.4002Z"
                        fill="#545658" />
                    <path
                        d="M29.6 8H2.4C1.07467 8 0 9.07444 0 10.4V24C0 25.3255 1.07467 26.4 2.4 26.4H4V19.2C4 18.3164 4.71636 17.6 5.6 17.6H26.4C27.2836 17.6 28 18.3164 28 19.2V26.4H29.6C30.9253 26.4 32 25.3255 32 24V10.4C32 9.07444 30.9253 8 29.6 8ZM25.6 12.8H20.3997C20.1786 12.8 19.9994 12.6208 19.9994 12.3997C19.9994 12.1786 20.1782 11.9994 20.3997 11.9994H25.6C25.8211 11.9994 26.0003 12.1786 26.0003 12.3997C26.0003 12.6208 25.8214 12.8 25.6 12.8ZM28.2 13C27.869 13 27.6 12.7312 27.6 12.4C27.6 12.069 27.8688 11.8 28.2 11.8C28.531 11.8 28.8 12.0685 28.8 12.4C28.8 12.7315 28.5312 13 28.2 13Z"
                        fill="#545658" />
                </g>
                <defs>
                    <clipPath id="clip0_2937_6813">
                        <rect width="32" height="32" fill="white" />
                    </clipPath>
                </defs>
            </svg>