<svg width="32" height="24" viewBox="0 0 32 24" fill="none" xmlns="http://www.w3.org/2000/svg">
                <g clip-path="url(#clip0_2937_6811)">
                    <path
                        d="M27.4372 6.2842C28.582 5.4855 29.6124 4.52707 30.4137 3.40889C29.3835 3.83486 28.1814 4.15433 26.9793 4.26083C28.2387 3.56862 29.1545 2.50369 29.6124 1.17253C28.4676 1.81149 27.1512 2.29071 25.8345 2.55694C24.6897 1.43876 23.1443 0.799805 21.427 0.799805C18.1072 0.799805 15.4169 3.3024 15.4169 6.3907C15.4169 6.81667 15.4741 7.24264 15.5886 7.66861C10.6087 7.40238 6.14396 5.16603 3.16747 1.81149C2.6523 2.61019 2.36611 3.56862 2.36611 4.63356C2.36611 6.55043 3.39643 8.25432 5.0564 9.26601C4.08331 9.21276 3.11024 8.99977 2.30886 8.5738V8.62705C2.30886 11.3426 4.36951 13.579 7.11703 14.1115C6.65911 14.2179 6.08672 14.3244 5.57155 14.3244C5.17088 14.3244 4.82743 14.2712 4.42675 14.2179C5.17088 16.4543 7.40324 18.0516 10.0363 18.1049C7.97564 19.5958 5.39984 20.5011 2.59507 20.5011C2.0799 20.5011 1.62198 20.4478 1.16406 20.3945C3.79712 21.992 6.94532 22.8971 10.3797 22.8971C21.427 22.8971 27.4372 14.4309 27.4372 7.02964C27.4372 6.76342 27.4372 6.55043 27.4372 6.2842Z"
                        fill="#c32d37" />
                </g>
                <defs>
                    <clipPath id="clip0_2937_6811">
                        <rect width="32" height="22.4" fill="white" transform="translate(0 0.799805)" />
                    </clipPath>
                </defs>
            </svg>