<svg width="30" height="30" viewBox="0 0 30 30" fill="none" xmlns="http://www.w3.org/2000/svg">
<path fill-rule="evenodd" clip-rule="evenodd" d="M15 30C23.2843 30 30 23.2843 30 15C30 6.71573 23.2843 0 15 0C6.71573 0 0 6.71573 0 15C0 23.2843 6.71573 30 15 30ZM8.2663 22H11.5842V11.3071H8.2663V22ZM8 7.92508C8 8.98824 8.86003 9.85015 9.92524 9.85015C10.9861 9.85015 11.8461 8.98387 11.8461 7.92508C11.8461 6.86191 10.9861 6 9.92524 6C8.86003 6 8 6.86191 8 7.92508ZM20.6865 22H24V16.1329C24 13.254 23.3801 11.0402 20.0229 11.0402C18.412 11.0402 17.3293 11.9284 16.8884 12.7684H16.8447V11.3071H13.6666V22H16.9757V16.7148C16.9757 15.3191 17.2377 13.9672 18.9621 13.9672C20.6647 13.9672 20.6865 15.5641 20.6865 16.8023V22Z" fill="#535658"/>
</svg>
