<svg width="1440" height="621" viewBox="0 0 1440 621" fill="none" xmlns="http://www.w3.org/2000/svg">
<mask id="mask0_5253_5465" style="mask-type:alpha" maskUnits="userSpaceOnUse" x="0" y="0" width="1440" height="621">
<path d="M0 40.2295C0 18.1381 17.9086 0.229492 40 0.229492H1440V620.229H0V40.2295Z" fill="#F2F2F2"/>
</mask>
<g mask="url(#mask0_5253_5465)">
<path opacity="0.25" d="M1274.77 531.995L1274.07 531.288L1274.77 530.581L1668.89 136.464L1668.92 -123.178L1082.99 462.75C1064.83 480.993 1054.65 505.692 1054.68 531.427C1054.71 557.163 1064.94 581.834 1083.14 600.03L1668.12 1185.01L1668.15 925.368L1274.77 531.995Z" stroke="#6E7476" stroke-width="2"/>
<path opacity="0.25" d="M962.305 253.588L963.012 252.881L962.305 252.174L568.188 -141.943L568.161 -401.586L1154.09 184.343C1172.25 202.586 1182.43 227.284 1182.4 253.02C1182.37 278.755 1172.14 303.427 1153.94 321.623L568.959 906.604L568.932 646.961L962.305 253.588Z" stroke="#6E7476" stroke-width="2"/>
</g>
</svg>
