<svg width="37" height="41" viewBox="0 0 37 41" fill="none" xmlns="http://www.w3.org/2000/svg">
<path d="M22.3662 3.83678C17.2498 -1.27939 8.95373 -1.27869 3.83731 3.83747C-1.2791 8.95363 -1.2791 17.2486 3.83731 22.3647L22.3655 40.892L22.3662 29.816L9.37498 16.8268C7.31719 14.7691 7.31719 11.4331 9.37498 9.37541C11.433 7.3175 14.7698 7.3175 16.8278 9.37541L22.3655 14.9128L22.3662 3.83678Z" fill="#C32D37"/>
<path d="M27.9045 9.37534L22.3668 14.9127L22.3655 14.9128L22.3662 29.816L35.3573 16.8267C37.4151 14.769 37.4151 11.433 35.3573 9.37534C33.2993 7.31743 29.9625 7.31743 27.9045 9.37534Z" fill="#C32D37"/>
</svg>
