<svg width="30" height="30" viewBox="0 0 30 30" fill="none" xmlns="http://www.w3.org/2000/svg">
<path fill-rule="evenodd" clip-rule="evenodd" d="M15 30C23.2843 30 30 23.2843 30 15C30 6.71573 23.2843 0 15 0C6.71573 0 0 6.71573 0 15C0 23.2843 6.71573 30 15 30ZM23.1687 11.9433C23.1687 16.6132 19.4534 22 12.6626 22C10.6551 22.001 8.68964 21.4499 7 20.4123C7.2928 20.4464 7.58747 20.4637 7.88242 20.4641C9.54563 20.4666 11.1613 19.9332 12.4693 18.9497C11.6988 18.9349 10.9525 18.6902 10.3343 18.2498C9.71618 17.8094 9.25709 17.1953 9.02113 16.4931C9.57399 16.5955 10.144 16.5748 10.6872 16.4325C9.85099 16.2714 9.09889 15.838 8.55873 15.2061C8.01857 14.5742 7.72369 13.7828 7.72422 12.9663V12.9225C8.23748 13.1945 8.81097 13.3456 9.3973 13.3634C8.6163 12.8633 8.0635 12.0974 7.85127 11.2212C7.63904 10.345 7.7833 9.42434 8.25473 8.64631C9.18227 9.73749 10.339 10.6299 11.65 11.2657C12.961 11.9015 14.3969 12.2665 15.8646 12.337C15.6816 11.5791 15.7644 10.7846 16.1004 10.0763C16.4363 9.36796 17.0067 8.78532 17.7233 8.41843C18.4399 8.05153 19.2628 7.92083 20.0648 8.04651C20.8667 8.17219 21.6031 8.54727 22.1601 9.11374C22.9867 8.95724 23.7794 8.66716 24.5043 8.25594C24.2279 9.07416 23.651 9.7687 22.8804 10.2108C23.6122 10.1294 24.3269 9.94222 25 9.65555C24.5046 10.3655 23.8809 10.9853 23.1582 11.4856C23.1652 11.637 23.1687 11.7918 23.1687 11.9433Z" fill="#535658"/>
</svg>
