<svg width="36" height="41" viewBox="0 0 36 41" fill="none" xmlns="http://www.w3.org/2000/svg">
<path d="M15.4895 0L2.9311 12.5584C-0.977034 16.4666 -0.977032 22.8029 2.9311 26.711C6.34358 30.1235 11.6074 30.5563 15.4895 28.0094V17.2297L11.5459 21.1732C10.6962 22.0229 9.31859 22.0229 8.4689 21.1732C7.61921 20.3235 7.61921 18.9459 8.4689 18.0962L15.4895 11.0757L15.4895 0Z" fill="#C32D37"/>
<path d="M20.1885 12.8265V23.6063L24.1322 19.6626C24.9819 18.8129 26.3595 18.8129 27.2092 19.6626C28.0589 20.5123 28.0589 21.8899 27.2092 22.7396L20.1885 29.7603L20.1885 40.8358L32.747 28.2774C36.6551 24.3692 36.6551 18.0329 32.747 14.1248C29.3344 10.7122 24.0705 10.2795 20.1885 12.8265Z" fill="#C32D37"/>
</svg>
