<?xml version="1.0" standalone="no"?>
<!DOCTYPE svg PUBLIC "-//W3C//DTD SVG 1.1//EN" "http://www.w3.org/Graphics/SVG/1.1/DTD/svg11.dtd" >
<svg xmlns="http://www.w3.org/2000/svg">
<metadata>Generated by IcoMoon</metadata>
<defs>
<font id="icomoon" horiz-adv-x="1024">
<font-face units-per-em="1024" ascent="960" descent="-64" />
<missing-glyph horiz-adv-x="1024" />
<glyph unicode="&#x20;" horiz-adv-x="512" d="" />
<glyph unicode="&#xe900;" glyph-name="uniE900" d="M113.92 413.312c0 56.768 7.424 105.088 22.208 144.992 14.816 39.936 35.968 72.512 63.488 97.728 28.544 25.216 62.4 43.616 101.536 55.168 40.224 12.608 85.184 19.968 134.88 22.080l23.808-115.072c-107.904-12.608-159.2-61.984-153.92-148.16h117.44v-307.296h-309.44v250.56zM534.4 413.312c0 56.768 7.424 105.088 22.24 144.992 15.872 39.936 37.568 72.512 65.056 97.728 27.52 25.216 60.8 43.616 99.968 55.168 40.192 12.608 85.152 19.968 134.88 22.080l25.376-115.072c-106.848-12.608-158.656-61.984-155.52-148.16h117.44v-307.296h-309.44v250.56z" />
<glyph unicode="&#xe901;" glyph-name="Dots" d="M298.667 469.333c0-35.346-28.654-64-64-64s-64 28.654-64 64c0 35.346 28.654 64 64 64s64-28.654 64-64zM554.667 469.333c0-35.346-28.654-64-64-64s-64 28.654-64 64c0 35.346 28.654 64 64 64s64-28.654 64-64zM810.667 469.333c0-35.346-28.654-64-64-64s-64 28.654-64 64c0 35.346 28.654 64 64 64s64-28.654 64-64z" />
<glyph unicode="&#xe902;" glyph-name="7" d="M672 536.32c-37.591-13.572-63.98-48.934-64-90.461v-0.003h64v90.464zM981.344 704h-256v213.344c0 23.558-19.098 42.656-42.656 42.656-0.011 0-0.023 0-0.034 0h-341.31c-0.009 0-0.021 0-0.032 0-23.558 0-42.656-19.098-42.656-42.656v0-213.344h-256c-23.558 0-42.656-19.098-42.656-42.656v0-426.688c0-23.558 19.098-42.656 42.656-42.656v0h256v-213.344c0-23.558 19.098-42.656 42.656-42.656 0.011 0 0.023 0 0.034 0h341.31c0.009 0 0.021 0 0.032 0 23.558 0 42.656 19.098 42.656 42.656v0 213.344h256c23.551 0.018 42.638 19.105 42.656 42.654v426.69c-0.018 23.551-19.105 42.638-42.654 42.656h-0.002zM576 381.856c-17.673 0-32 14.327-32 32v0 32c0 88.366 71.634 160 160 160v0c17.579-0.231 31.769-14.421 32-31.978v-256.022c0-17.673-14.327-32-32-32s-32 14.327-32 32v0 64h-96zM448 349.856c17.673 0 32-14.327 32-32s-14.327-32-32-32v0h-128c-0.085-0.001-0.186-0.001-0.287-0.001-12.548 0-23.409 7.222-28.653 17.736l-0.084 0.185c-1.959 4.084-3.103 8.879-3.103 13.941 0 7.65 2.614 14.69 6.997 20.274l-0.054-0.071 108.384 134.816c8.256 10.624 12.736 23.68 12.8 37.12 0 17.673-14.327 32-32 32s-32-14.327-32-32v0c0-17.673-14.327-32-32-32s-32 14.327-32 32v0c0 53.019 42.981 96 96 96s96-42.981 96-96v0c0-0.105 0.001-0.23 0.001-0.355 0-29.176-10.132-55.987-27.069-77.104l0.188 0.243-66.56-82.784h61.44z" />
<glyph unicode="&#xe903;" glyph-name="Animal-assisted-programming" d="M1006.944 721.504c-6.857 15.026-21.751 25.28-39.040 25.28-23.629 0-42.784-19.155-42.784-42.784 0-6.34 1.379-12.359 3.854-17.771l-0.109 0.267c5.989-13.060 9.481-28.333 9.481-44.421 0-55.162-41.051-100.735-94.269-107.838l-0.556-0.061c-33.301 44.982-86.185 73.824-145.805 73.824-0.041 0-0.081 0-0.122 0h-189.85c-17.759-49.246-63.533-84.061-117.608-85.341l-0.152-0.003c-68.336 0.93-123.375 56.544-123.375 125.013 0 3.913 0.18 7.784 0.532 11.605l-0.036-0.491 11.072 112.192c-0.014 0.358-0.023 0.778-0.023 1.2 0 17.673 14.327 32 32 32s32-14.327 32-32c0-2.536-0.295-5.003-0.853-7.369l0.043 0.217-10.24-110.080c-0.181-1.76-0.285-3.803-0.285-5.871 0-33.473 27.135-60.608 60.608-60.608 16.135 0 30.797 6.305 41.657 16.585l-0.028-0.026c10.459 13.466 16.767 30.609 16.767 49.225 0 10.689-2.080 20.893-5.857 30.228l0.193-0.541c-5.35 26.366-8.733 56.961-9.367 88.232l-0.009 0.536c-2.355 62.703-53.755 112.641-116.819 112.641-0.185 0-0.369 0-0.554-0.001h-68.228c-4.345 0.449-9.389 0.705-14.492 0.705-59.499 0-110.872-34.795-134.88-85.147l-0.387-0.902h-24.768c-0.151 0.001-0.329 0.002-0.507 0.002-41.231 0-74.656-33.425-74.656-74.656 0-8.556 1.439-16.776 4.089-24.43l-0.158 0.524 16.64-49.056c7.887-24.34 27.484-42.815 51.974-48.98l0.506-0.108 69.536-17.472c8.49-2.185 14.892-9.156 16.209-17.799l0.015-0.121 55.040-429.248c-31.625-2.188-57.616-23.993-66.016-53.239l-0.128-0.521c-5.977-12.231-10.97-26.478-14.257-41.365l-0.239-1.291c0.707-18.529 15.899-33.283 34.536-33.283 0.155 0 0.309 0.001 0.463 0.003h166.793c17.148 0.203 31.081 13.69 31.996 30.638l0.004 0.082 8.544 204.8c0.46 11.407 9.818 20.48 21.296 20.48 0.017 0 0.034 0 0.051 0h216.733c13.44-7.232 27.808-12.704 42.656-16.224l6.4-111.776c-32.714-1.282-59.896-23.546-68.543-53.652l-0.129-0.524c-6.4-15.808-19.2-34.56-13.248-52.064 4.608-12.607 16.385-21.495 30.272-21.76h192.032c16.471 0.098 30.023 12.466 31.984 28.419l0.016 0.157c2.144 0 42.656 414.72 40.544 414.72 86.116 21.459 148.914 98.124 148.914 189.457 0 28.903-6.289 56.337-17.573 81.008l0.499-1.217z" />
<glyph unicode="&#xe904;" glyph-name="Apply" d="M1024 960h-1024v-1024h1024v1024zM928.128 820.779h-362.795v-32h362.795v32zM565.333 659.328h362.795v-32h-362.795v32zM928.128 497.877h-362.795v-32h362.795v32zM478.677 149.717l-56.619 45.824-52.139-64.341 119.040-96.299 165.12 191.915-62.72 53.888-112.683-130.987zM368.811 722.517c0-32.939-16.64-62.037-41.941-79.403 70.961-20.556 121.984-84.899 122.112-161.18v-0.015c0-8.86-7.183-16.043-16.043-16.043v0h-320.896c-8.86 0-16.043 7.183-16.043 16.043v0c0.133 76.306 51.176 140.654 120.969 160.9l1.185 0.294c-25.491 17.582-41.984 46.625-41.984 79.519 0 53.184 43.114 96.299 96.299 96.299s96.299-43.114 96.299-96.299c0-0.041 0-0.082 0-0.123v0.006zM336.725 722.517c0 35.413-28.8 64.213-64.213 64.213s-64.213-28.8-64.213-64.213c0-35.413 28.8-64.213 64.213-64.213s64.213 28.8 64.213 64.213z" />
<glyph unicode="&#xe905;" glyph-name="Apps-Property-124" d="M128 661.333h170.667v170.667h-170.667v-170.667zM426.667 64h170.667v170.667h-170.667v-170.667zM128 64h170.667v170.667h-170.667v-170.667zM128 362.667h170.667v170.667h-170.667v-170.667zM426.667 362.667h170.667v170.667h-170.667v-170.667zM725.333 832v-170.667h170.667v170.667h-170.667zM426.667 661.333h170.667v170.667h-170.667v-170.667zM725.333 362.667h170.667v170.667h-170.667v-170.667zM725.333 64h170.667v170.667h-170.667v-170.667z" />
<glyph unicode="&#xe906;" glyph-name="Apps-Property-136" d="M85.333 685.028h189.639v189.639h-189.639v-189.639zM417.195 21.333h189.611v189.639h-189.611v-189.639zM85.333 21.333h189.639v189.639h-189.639v-189.639zM85.333 353.195h189.639v189.611h-189.639v-189.611zM417.195 353.195h189.611v189.611h-189.611v-189.611zM749.028 874.667v-189.639h189.639v189.639h-189.639zM417.195 685.028h189.611v189.639h-189.611v-189.639zM749.028 353.195h189.639v189.611h-189.639v-189.611zM749.028 21.333h189.639v189.639h-189.639v-189.639z" />
<glyph unicode="&#xe907;" glyph-name="Arrow---Left" d="M235.947 704l26.752-26.197-191.232-191.403h952.533v-37.419h-952.533l191.232-191.573-26.795-26.027-235.904 236.331 235.947 236.288z" />
<glyph unicode="&#xe908;" glyph-name="Arrow---Right" d="M788.053 576l-26.752-26.197 191.232-191.403h-952.533v-37.419h952.533l-191.232-191.573 26.795-26.027 235.904 236.331-235.947 236.288z" />
<glyph unicode="&#xe909;" glyph-name="faq" horiz-adv-x="1126" d="M1052.938 960c19.482 0 38.17-7.701 51.948-21.408 13.773-13.707 21.514-32.298 21.514-51.682v-657.81c0-19.384-7.741-37.975-21.514-51.681-13.778-13.706-32.466-21.407-51.948-21.407h-481.905l-312.451-216.346c-3.722-2.396-8.058-3.666-12.489-3.666s-8.766 1.27-12.488 3.666c-4.028 1.946-7.412 5.002-9.755 8.796-2.342 3.799-3.546 8.187-3.468 12.641v194.908h-146.922c-9.512-0.261-18.981 1.372-27.851 4.797-8.87 3.43-16.963 8.586-23.805 15.165s-12.295 14.454-16.039 23.158c-3.744 8.704-5.705 18.063-5.766 27.53v660.248c0 19.385 7.74 37.975 21.516 51.682s32.461 21.408 51.945 21.408h979.478zM558.515 251.075c10.184 0.061 19.937 4.091 27.172 11.223h0.010c7.235 7.265 11.295 17.080 11.29 27.31-0.399 9.615-4.429 18.729-11.29 25.518-7.368 6.876-17.085 10.701-27.182 10.701s-19.82-3.825-27.187-10.701c-6.856-6.789-10.89-15.903-11.29-25.518 0-10.23 4.055-20.045 11.29-27.31 3.569-3.553 7.808-6.374 12.472-8.3s9.661-2.918 14.715-2.924zM630.308 494.894c2.181 2.201 4.419 4.458 6.676 6.777h0.527c35.395 35.223 88.75 88.82 89.774 161.8 1.469 23.174-1.992 46.397-10.168 68.147-8.172 21.75-20.874 41.536-37.268 58.063-16.389 16.527-36.111 29.422-57.861 37.84s-45.046 12.169-68.352 11.008c-59.246 0-161.842-37.002-161.842-175.058 0-10.152 4.054-19.889 11.269-27.068s17.001-11.212 27.205-11.212c10.204 0 19.99 4.033 27.205 11.212s11.269 16.915 11.269 27.068c0 91.357 64.891 98.5 84.895 98.5 36.173 0 96.696-12.754 96.696-98.5 0-41.546-36.588-78.262-66.063-107.841l-0.108-0.105c-9.743-9.694-18.724-18.628-25.646-26.794-26.107-34.299-39.68-76.43-38.477-119.437 0.399-9.882 4.628-19.231 11.802-26.081s16.732-10.675 26.675-10.665h0.998c10.179 0.461 19.768 4.905 26.68 12.355 6.917 7.45 10.598 17.311 10.255 27.448-0.701 23.695 5.929 47.034 18.985 66.864 4.229 4.937 9.375 10.13 14.874 15.68z" />
<glyph unicode="&#xe90a;" glyph-name="update" d="M129.926 461.874c0-207.819 150.678-349.384 319.878-378.684 19.362-3.352 32.34-21.763 28.987-41.131-3.353-19.36-21.766-32.338-41.128-28.986-198.77 34.42-378.897 201.953-378.897 448.801 0 104.904 47.727 187.346 103.462 250.061 39.926 44.926 85.603 81.403 122.339 109.346h-111.712c-18.851 0-34.133 15.282-34.133 34.133s15.282 34.133 34.133 34.133h204.8c18.851 0 34.133-15.282 34.133-34.133v-204.8c0-18.851-15.282-34.133-34.133-34.133s-34.133 15.282-34.133 34.133v125.991l-0.103-0.078-0.008-0.005c-39.012-29.424-86.688-65.38-127.992-111.857-48.778-54.887-85.492-121.197-85.492-202.791zM888.211 434.128c0 205.623-147.483 346.358-314.509 377.714-19.313 3.626-32.030 22.221-28.404 41.534s22.221 32.029 41.533 28.404c196.215-36.837 372.534-203.451 372.534-447.652 0-104.903-47.725-187.344-103.458-250.060-39.929-44.926-85.606-81.401-122.341-109.35h111.718c18.848 0 34.133-15.278 34.133-34.133 0-18.848-15.285-34.133-34.133-34.133h-204.803c-18.851 0-34.133 15.285-34.133 34.133v204.8c0 18.855 15.282 34.136 34.133 34.136s34.133-15.281 34.133-34.136v-125.986l0.107 0.082c39.013 29.423 86.69 65.379 127.992 111.855 48.783 54.889 85.497 121.198 85.497 202.792z" />
<glyph unicode="&#xe90b;" glyph-name="nav-caret" d="M108.292 643.45l402.377-414.726 405.071 414.726c54.011 56.916 145.83-35.232 91.821-92.161l-459.103-471.63c-18.907-18.977-54.010-21.683-72.916-2.706l-459.103 474.336c-54.010 56.916 37.847 149.078 91.853 92.161z" />
<glyph unicode="&#xe90d;" glyph-name="Book" d="M921.952 882.496c-19.393 16.566-44.76 26.646-72.481 26.646-5.383 0-10.677-0.38-15.858-1.115l0.595 0.069c-105.833-16.599-200.248-55.545-281.664-111.932l2.24 1.468c-20.324-13.194-33.589-35.763-33.632-61.433v-712.423c0-0.068-0.001-0.149-0.001-0.23 0-20.183 16.361-36.544 36.544-36.544 7.959 0 15.324 2.544 21.325 6.864l-0.109-0.074c79.804 58.962 176.855 99.191 282.316 112.339l2.964 0.301c54.255 6.8 95.811 52.643 95.811 108.192 0 0.281-0.001 0.562-0.003 0.843v-0.043 585.152c-0.455 32.688-15.043 61.881-37.915 81.807l-0.133 0.113zM438.848 736.192c-0.043 25.677-13.308 48.246-33.348 61.267l-0.284 0.173c-79.187 54.913-173.613 93.85-275.633 109.935l-3.823 0.497c-4.818 0.75-10.376 1.178-16.033 1.178-60.601 0-109.728-49.127-109.728-109.728 0-0.155 0-0.311 0.001-0.466v0.024-585.12c-0.002-0.238-0.003-0.519-0.003-0.8 0-55.549 41.556-101.392 95.276-108.137l0.535-0.055c108.414-13.454 205.454-53.682 286.908-113.81l-1.66 1.17c5.902-4.258 13.281-6.81 21.255-6.81 20.2 0 36.576 16.376 36.576 36.576 0 0.594-0.014 1.185-0.042 1.773l0.003-0.083v712.416z" />
<glyph unicode="&#xe910;" glyph-name="Calendar-Property-142, Date-BlocksNo" d="M893.023 738.483h-762.047v-87.111h762.047v87.111zM893.023 607.839h-762.047v-513.715h762.047v513.667zM312.415 801.875h36.292v-141.193h-36.292v141.193zM675.292 801.875h36.292v-141.193h-36.292v141.193z" />
<glyph unicode="&#xe911;" glyph-name="Calendar" d="M843.392 790.869h69.547c16.373-0.349 29.615-13.279 30.461-29.492l0.003-0.076v-710.4c0-16.213-13.355-29.568-29.525-29.568h-799.019c-16.268 0.096-29.429 13.258-29.525 29.516v710.452c0 16.213 13.312 29.568 29.525 29.568h67.627v54.272c0 16.213 13.355 29.525 29.525 29.525h184.747c16.213 0 29.525-13.355 29.525-29.525v-54.272h174.293v54.272c0 16.213 13.312 29.525 29.483 29.525h183.851c16.213 0 29.525-13.355 29.525-29.525l-0.043-54.272zM785.323 816.555h-126.677v-118.059h126.677v118.059zM368.171 816.555h-126.677v-118.059h126.72v118.059zM432.939 239.488l-16.171 15.189h0.939l-77.141 76.203 41.899 41.899 76.203-75.221 197.12 207.616 42.88-40.96-239.061-250.453-0.939 0.939-25.728 24.747z" />
<glyph unicode="&#xe912;" glyph-name="Chevron-Property-1Default, PositionDown, Size24" d="M731.307 586.325l27.307-28.203-246.613-248.448-246.613 248.448 27.136 28.16 219.477-222.037 219.307 222.123z" />
<glyph unicode="&#xe913;" glyph-name="Chevron-Property-1Default1, PositionDown1, Size32" d="M761.12 605.12l31.040-32-280.16-282.24-280.16 282.24 30.816 32 249.344-252.288 249.12 252.352z" />
<glyph unicode="&#xe914;" glyph-name="Chevron-Property-1Default2, PositionLeft, Size241" d="M669.141 198.912l-32.043-31.061-282.24 280.149 282.24 280.149 32.043-30.805-252.373-249.344 252.373-249.088z" />
<glyph unicode="&#xe915;" glyph-name="Chevron-Property-1Default3, PositionLeft1, Size321" d="M669.12 198.88l-32-31.040-282.24 280.16 282.24 280.16 32-30.816-252.288-249.344 252.352-249.12z" />
<glyph unicode="&#xe916;" glyph-name="Chevron-Property-1Default4, PositionRight, Size242" d="M354.859 697.088l32.043 31.061 282.24-280.149-282.24-280.149-32.043 30.805 252.373 249.344-252.373 249.088z" />
<glyph unicode="&#xe917;" glyph-name="Chevron-Property-1Default5, PositionRight1, Size322" d="M354.88 697.12l32 31.040 282.24-280.16-282.24-280.16-32 30.816 252.288 249.344-252.288 249.12z" />
<glyph unicode="&#xe918;" glyph-name="Chevron-Property-1Default6, PositionUp, Size243" d="M292.693 309.675l-27.307 28.203 246.613 248.448 246.613-248.448-27.136-28.16-219.477 222.037-219.307-222.123z" />
<glyph unicode="&#xe919;" glyph-name="Chevron-Property-1Default7, PositionUp1, Size323" d="M262.88 290.88l-31.040 32 280.16 282.24 280.16-282.24-30.816-32-249.344 252.288-249.12-252.288z" />
<glyph unicode="&#xe91a;" glyph-name="Chevron-Property-1Text, PositionDown2, Size244" d="M731.307 458.325l27.307-28.203-246.613-248.448-246.613 248.448 27.136 28.16 219.477-222.037 219.307 222.123z" />
<glyph unicode="&#xe91b;" glyph-name="Chevron-Property-1Text1, PositionDown3, Size324" d="M761.12 509.12l31.040-32-280.16-282.24-280.16 282.24 30.816 32 249.344-252.288 249.12 252.352z" />
<glyph unicode="&#xe91c;" glyph-name="Chevron-Property-1Text2, PositionLeft2, Size245" d="M669.141 102.912l-32.043-31.061-282.24 280.149 282.24 280.149 32.043-30.805-252.373-249.344 252.373-249.088z" />
<glyph unicode="&#xe91d;" glyph-name="Chevron-Property-1Text3, PositionLeft3, Size325" d="M669.12 102.88l-32-31.040-282.24 280.16 282.24 280.16 32-30.816-252.288-249.344 252.352-249.12z" />
<glyph unicode="&#xe91e;" glyph-name="Chevron-Property-1Text6, PositionRight3, Size246" d="M354.859 643.797l32.043 31.019 282.24-280.149-282.24-280.149-32.043 30.805 252.373 249.344-252.373 249.173z" />
<glyph unicode="&#xe91f;" glyph-name="Chevron-Property-1Text5, PositionRight2, Size327" d="M354.88 601.12l32 31.040 282.24-280.16-282.24-280.16-32 30.816 252.288 249.344-252.352 249.12z" />
<glyph unicode="&#xe920;" glyph-name="Chevron-Property-1Text7, PositionUp3, Size247" d="M292.693 181.675l-27.307 28.203 246.613 248.448 246.613-248.448-27.136-28.203-219.477 222.123-219.307-222.123z" />
<glyph unicode="&#xe921;" glyph-name="Chevron-Property-1Text4, PositionUp2, Size326" d="M262.88 194.88l-31.040 32 280.16 282.24 280.16-282.24-30.816-32-249.344 252.288-249.12-252.288z" />
<glyph unicode="&#xe922;" glyph-name="Circle-Close" d="M938.667 448c0-235.641-191.025-426.667-426.667-426.667s-426.667 191.025-426.667 426.667c0 235.641 191.025 426.667 426.667 426.667s426.667-191.025 426.667-426.667z" />
<glyph unicode="&#xe923;" glyph-name="Close" d="M170.667 849.664l341.291-341.333 341.376 341.333 60.331-60.331-341.333-341.333 341.333-341.333-60.331-60.331-341.333 341.333-341.333-341.333-60.331 60.331 341.333 341.333-341.333 341.333 60.331 60.331z" />
<glyph unicode="&#xe924;" glyph-name="CopyLink-Property-132" d="M394.016 3.488c-89.952-89.984-236.48-89.984-326.528 0.096-89.984 89.984-89.984 236.48 0 326.464l231.232 231.232c89.984 89.984 236.48 89.984 326.56-0.096 2.4-2.4 4.8-4.928 7.104-7.424 1.344-1.152 2.592-2.304 3.968-3.552 3.482-3.45 6.497-7.362 8.948-11.638l0.14-0.266 0.96-1.152c-0.128-0.096-0.128-0.096-0.224-0.096 4.056-7.497 6.44-16.411 6.44-25.882 0-15.295-6.217-29.138-16.262-39.14l-0.002-0.002c-9.992-10.007-23.804-16.197-39.062-16.197-9.657 0-18.734 2.48-26.631 6.837l0.285-0.144c-1.472-1.568-16 12.864-23.616 20.608l-0.128 0.064c-21.754 21.889-51.879 35.436-85.168 35.436-33.082 0-63.040-13.38-84.756-35.024l-231.677-231.773c-21.798-21.778-35.282-51.874-35.282-85.12s13.484-63.342 35.281-85.119l0.001-0.001 0.128-0.096c21.776-21.788 51.866-35.266 85.104-35.266s63.328 13.477 85.103 35.265l139.521 139.521c23.141-11.596 50.422-18.385 79.287-18.385 27.13 0 52.859 5.997 75.935 16.737l-1.11-0.464-215.584-215.456zM956.512 565.984l-231.232-231.232c-89.984-89.984-236.48-89.984-326.56 0.096-2.364 2.367-4.681 4.785-6.947 7.251l-0.157 0.173c-5.196 4.286-9.52 9.406-12.819 15.188l-0.141 0.268c-0.32 0.416-0.64 0.736-0.832 1.152 0 0 0.096 0.096 0.224 0.096-4.049 7.492-6.429 16.399-6.429 25.862 0 15.289 6.213 29.128 16.251 39.129l0.002 0.002c9.994 10.019 23.814 16.218 39.082 16.218 9.648 0 18.719-2.475 26.61-6.826l-0.285 0.144c1.472 1.536 16-12.96 23.616-20.608l0.096-0.096c47.040-47.040 122.88-47.456 169.792-0.416l231.68 231.68c21.788 21.776 35.266 51.866 35.266 85.104s-13.477 63.328-35.265 85.103l-0.001 0.001v0.096c-21.778 21.798-51.874 35.282-85.12 35.282s-63.342-13.484-85.119-35.281l-0.001-0.001-139.584-139.392c-23.142 11.57-50.417 18.342-79.274 18.342-27.144 0-52.889-5.992-75.983-16.726l1.113 0.464 215.488 215.488c89.952 89.952 236.48 89.952 326.528-0.128 89.984-89.952 89.984-236.48 0-326.4z" />
<glyph unicode="&#xe925;" glyph-name="CopyLink-Property-1Default" d="M394.027 3.499c-41.809-41.691-99.505-67.469-163.221-67.469-63.759 0-121.489 25.813-163.31 67.558l0.004-0.004c-41.701 41.804-67.486 99.502-67.486 163.221s25.785 121.417 67.491 163.226l231.248 231.248c41.81 41.694 99.508 67.474 163.227 67.474 67.377 0 128.022-28.825 170.275-74.817l0.151-0.167 3.925-3.541c3.669-3.669 6.699-7.68 9.088-11.947l0.939-1.152-0.171-0.085c11.093-20.907 7.808-47.445-9.813-64.981-9.99-10.024-23.81-16.227-39.078-16.227-9.668 0-18.755 2.487-26.656 6.856l0.284-0.144c-1.451-1.579-15.957 12.8-23.595 20.565l-0.128 0.128c-21.753 21.886-51.876 35.431-85.162 35.431-33.074 0-63.025-13.374-84.74-35.008l-231.676-231.804c-21.798-21.778-35.282-51.874-35.282-85.12s13.484-63.342 35.281-85.119l0.001-0.001 0.128-0.085c21.778-21.798 51.874-35.282 85.12-35.282s63.342 13.484 85.119 35.281l139.478 139.521c23.147-11.605 50.435-18.398 79.31-18.398 27.121 0 52.843 5.994 75.912 16.729l-1.11-0.464-215.552-215.467zM956.544 565.973l-231.253-231.253c-41.808-41.682-99.497-67.454-163.207-67.454-67.388 0-128.041 28.834-170.295 74.838l-0.152 0.168c-5.197 4.284-9.525 9.4-12.83 15.177l-0.141 0.268c-0.299 0.427-0.64 0.725-0.853 1.152 0 0 0.128 0.128 0.213 0.128-4.046 7.491-6.424 16.397-6.424 25.858 0 15.285 6.206 29.12 16.236 39.123l0.001 0.001c9.996 10.018 23.817 16.217 39.086 16.217 9.664 0 18.748-2.483 26.65-6.846l-0.284 0.144c1.451 1.579 15.957-12.971 23.595-20.608l0.128-0.085c21.72-21.922 51.835-35.495 85.119-35.495 33.073 0 63.016 13.401 84.695 35.069l231.637 231.68c21.798 21.778 35.282 51.874 35.282 85.12s-13.484 63.342-35.281 85.119l-0.001 0.001v0.085c-21.778 21.798-51.874 35.282-85.12 35.282s-63.342-13.484-85.119-35.281l-0.001-0.001-139.605-139.392c-23.141 11.569-50.415 18.34-79.27 18.34-27.133 0-52.868-5.988-75.956-16.714l1.113 0.464 215.467 215.467c41.809 41.691 99.505 67.469 163.221 67.469 63.78 0 121.527-25.83 163.352-67.599l-0.002 0.002c41.688-41.802 67.465-99.491 67.465-163.2s-25.777-121.398-67.47-163.205l0.005 0.005z" />
<glyph unicode="&#xe926;" glyph-name="Cursor-Size24" d="M554.667 64v750.933h-42.667v-750.933h42.667z" />
<glyph unicode="&#xe927;" glyph-name="Cursor-Size32" d="M554.656 64v750.944h-42.656v-750.944h42.656z" />
<glyph unicode="&#xe928;" glyph-name="Download-Property-124" d="M584.868 381.768l181.043 181.043 80.282-80.282-318.013-318.177-29.45 29.655-288.522 288.522 80.282 80.282 180.838-180.838-0.901 538.173 113.541 0.123 0.901-538.542z" />
<glyph unicode="&#xe929;" glyph-name="Download-Property-132" d="M581.911 400.524l182.862 182.831 81.082-81.082-321.195-321.381-29.727 29.944-291.437 291.437 81.082 81.082 182.644-182.644-0.931 543.589 114.75 0.186 0.931-543.961z" />
<glyph unicode="&#xe92a;" glyph-name="Educational-Sessions" d="M938.656 896h-853.312c-35.346 0-64-28.654-64-64v0-578.144c0.222-34.223 28.017-61.88 62.271-61.88 0.608 0 1.214 0.009 1.818 0.026l-0.089-0.002h128v-170.656c-0.002-0.109-0.003-0.238-0.003-0.366 0-8.051 4.646-15.018 11.404-18.364l0.12-0.054c3.073-2.010 6.837-3.206 10.88-3.206s7.807 1.196 10.957 3.253l-0.077-0.047 272.192 189.44h419.84c35.346 0 64 28.654 64 64v0 576c0 35.346-28.654 64-64 64v0zM416 362.656c0 17.673 14.327 32 32 32v0h53.344v181.344c0 0 0 0 0 0 0 5.885-4.771 10.656-10.656 10.656-0.011 0-0.022 0-0.034 0h-42.654c-17.673 0-32 14.327-32 32s14.327 32 32 32v0h42.656c0.009 0 0.021 0 0.032 0 41.231 0 74.656-33.425 74.656-74.656v0-181.344h53.312c17.673 0 32-14.327 32-32s-14.327-32-32-32v0h-170.656c-17.673 0-32 14.327-32 32v0zM490.656 746.656c0 23.567 19.105 42.672 42.672 42.672s42.672-19.105 42.672-42.672v0c0-23.567-19.105-42.672-42.672-42.672s-42.672 19.105-42.672 42.672v0z" />
<glyph unicode="&#xe92b;" glyph-name="Facebook-Property-132" d="M1024 444.864c0 284.48-229.216 515.136-512 515.136s-512-230.624-512-515.136c0-257.12 187.2-470.208 432-508.864v359.968h-130.016v148.896h130.016v113.536c0 129.088 76.448 200.416 193.376 200.416 56 0 114.624-10.080 114.624-10.080v-126.752h-64.544c-63.616 0-83.456-39.712-83.456-80.48v-96.608h142.016l-22.72-148.896h-119.296v-360c244.8 38.656 432 251.744 432 508.864z" />
<glyph unicode="&#xe92c;" glyph-name="Facebook-Property-140" d="M1024 444.877c0 284.467-229.222 515.123-512 515.123s-512-230.63-512-515.123c0-257.126 187.238-470.221 432-508.877v359.962h-129.997v148.915h129.997v113.459c0 129.101 76.442 200.422 193.382 200.422 56.013 0 114.611-10.061 114.611-10.061v-126.771h-64.563c-63.59 0-83.43-39.706-83.43-80.486v-96.589h142.003l-22.707-148.915h-119.296v-359.936c244.762 38.656 432 251.75 432 508.877z" />
<glyph unicode="&#xe92d;" glyph-name="FAcebook" d="M1024 448c0 282.752-229.248 512-512 512s-512-229.248-512-512c0-255.573 187.221-467.371 432-505.771v357.717h-130.005v148.053h130.005v112.811c0 128.299 76.459 199.168 193.408 199.168 55.979 0 114.603-9.984 114.603-9.984v-125.995h-64.597c-63.616 0-83.456-39.467-83.456-80v-96h141.995l-22.699-148.011h-119.296v-357.76c244.821 38.4 432.043 250.197 432.043 505.771z" />
<glyph unicode="&#xe92e;" glyph-name="Family-History" d="M757.344 160c-0.072 0-0.157 0-0.242 0-55.127 0-105.080-22.151-141.444-58.038l0.022 0.022c-2.145-1.886-3.491-4.637-3.491-7.701 0-1.547 0.343-3.014 0.958-4.33l-0.026 0.063c17.92-41.92 27.072-87.072 26.88-132.672v-10.24c-0.033-0.289-0.052-0.625-0.052-0.965 0-2.669 1.167-5.066 3.019-6.707l0.009-0.008c1.812-2.103 4.479-3.427 7.455-3.427 0.079 0 0.158 0.001 0.236 0.003h287.988c0.010 0 0.021 0 0.032 0 11.77 0 21.312 9.542 21.312 21.312 0 0.011 0 0.023 0 0.034v-0.002c0 111.924-90.732 202.656-202.656 202.656v0zM512 471.904c-1.484 118.105-97.572 213.276-215.888 213.276s-214.404-95.171-215.887-213.135l-0.001-0.14c0-60.608 48.192-215.904 215.872-215.904 118.855 0.952 214.952 97.048 215.903 215.813l0.001 0.091zM173.664 518.4c1.241 3.029 3.693 5.346 6.738 6.377l0.078 0.023c1.383 0.606 2.994 0.959 4.688 0.959s3.305-0.353 4.765-0.989l-0.077 0.030c45.286-31.509 101.447-50.34 162.006-50.34 23.357 0 46.059 2.801 67.789 8.086l-1.955-0.402c0.95 0.374 2.049 0.591 3.2 0.591s2.25-0.217 3.261-0.612l-0.061 0.021c1.577-1.413 2.564-3.455 2.564-5.728 0-0.090-0.002-0.18-0.005-0.269v0.013c0-72.106-58.454-130.56-130.56-130.56s-130.56 58.454-130.56 130.56v0c0.48 14.4 3.2 28.672 8.128 42.24zM576-42.656c0 159.058-128.942 288-288 288s-288-128.942-288-288v0c0-11.788 9.556-21.344 21.344-21.344v0h533.312c0.010 0 0.021 0 0.032 0 11.77 0 21.312 9.542 21.312 21.312 0 0.011 0 0.023 0 0.034v-0.002zM256 128c0 17.673 14.327 32 32 32s32-14.327 32-32v0-61.856c0-17.673-14.327-32-32-32s-32 14.327-32 32v0 61.856zM896 316.576c0 76.825-62.279 139.104-139.104 139.104s-139.104-62.279-139.104-139.104v0c0-76.825 62.279-139.104 139.104-139.104s139.104 62.279 139.104 139.104v0zM1011.616 520.96l-102.4 101.984c-1.362 1.822-2.18 4.12-2.18 6.608s0.819 4.786 2.201 6.637l-0.021-0.029c19.44 31.541 30.957 69.763 30.957 110.675 0 117.809-95.503 213.312-213.312 213.312s-213.312-95.503-213.312-213.312c0-117.809 95.503-213.312 213.312-213.312 40.912 0 79.133 11.517 111.599 31.487l-0.925-0.529c1.825 1.369 4.129 2.192 6.624 2.192s4.799-0.823 6.653-2.213l-0.029 0.021 101.952-102.4c7.74-7.789 18.459-12.609 30.304-12.609s22.564 4.821 30.302 12.607l0.002 0.002c6.786 7.528 10.937 17.546 10.937 28.534 0 11.868-4.843 22.606-12.662 30.343l-0.004 0.004zM597.344 746.656c0 70.692 57.308 128 128 128s128-57.308 128-128v0c0-70.692-57.308-128-128-128s-128 57.308-128 128v0z" />
<glyph unicode="&#xe938;" glyph-name="Featured-Property-124" d="M954.709 192l-108.416 165.632v2.987l177.707 87.381-177.707 87.339v2.987l108.416 165.675-198.784-12.032 12.032 198.827-165.589-108.459h-2.987l-87.381 177.664-87.339-177.707h-2.987l-165.675 108.416 12.032-198.784-198.784 12.075 108.459-165.589v-2.987l-177.707-87.424 177.707-87.339v-2.987l-108.416-165.675 198.784 12.032-12.075-198.784 165.589 108.459h2.987l87.424-177.707 87.339 177.707h2.987l165.675-108.416-12.032 198.784 198.827-12.032zM512 207.104c-132.523 0-240.939 108.373-240.939 240.939 0 132.523 108.373 240.939 240.939 240.939 132.523 0 240.939-108.373 240.939-240.939 0-132.523-108.373-240.939-240.939-240.939zM512 628.693c-99.668-0.314-180.379-81.026-180.693-180.663v-0.030c0.314-99.668 81.026-180.379 180.663-180.693h0.030c99.668 0.314 180.379 81.026 180.693 180.663v0.030c-0.314 99.668-81.026 180.379-180.663 180.693h-0.030z" />
<glyph unicode="&#xe93c;" glyph-name="Focus" d="M54.848 630.848c-30.148 0.41-54.475 24.759-54.848 54.877v73.123c0.415 70.525 57.475 127.585 127.96 128h73.192c30.292 0 54.848-24.556 54.848-54.848s-24.556-54.848-54.848-54.848v0h-73.152c0 0 0 0 0 0-10.091 0-18.272-8.181-18.272-18.272 0-0.011 0-0.022 0-0.034v0.002-73.088c-0.392-30.151-24.729-54.488-54.843-54.88h-0.037zM969.152 630.848c-30.175 0.374-54.538 24.737-54.912 54.876v73.124c0 0 0 0 0 0 0 10.087-8.159 18.267-18.237 18.304h-73.155c-30.292 0-54.848 24.556-54.848 54.848s24.556 54.848 54.848 54.848v0h73.152c70.525-0.415 127.585-57.475 128-127.96v-73.128c-0.391-30.14-24.711-54.471-54.809-54.88h-0.039zM896 9.152h-73.152c-30.292 0-54.848 24.556-54.848 54.848s24.556 54.848 54.848 54.848v0h73.152c10.095 0.018 18.272 8.206 18.272 18.304 0 0 0 0 0 0v0 73.088c0 30.301 24.563 54.864 54.864 54.864s54.864-24.563 54.864-54.864v0-73.12c-0.415-70.525-57.475-127.585-127.96-128h-0.040zM201.152 9.152h-73.152c-70.525 0.415-127.585 57.475-128 127.96v73.128c0.391 30.14 24.711 54.471 54.809 54.88h0.039c30.164-0.374 54.52-24.718 54.912-54.843v-73.157c0 0 0 0 0 0 0-10.098 8.177-18.286 18.27-18.304h73.154c30.292 0 54.848-24.556 54.848-54.848s-24.556-54.848-54.848-54.848v0zM512 265.152c100.984 0 182.848 81.864 182.848 182.848s-81.864 182.848-182.848 182.848v0c-100.984 0-182.848-81.864-182.848-182.848s81.864-182.848 182.848-182.848v0z" />
<glyph unicode="&#xe93d;" glyph-name="Gender-Specific-Group" d="M677.12 513.696c6.677 2.975 11.446 9.158 12.373 16.537l0.011 0.103c0.207 1.092 0.325 2.349 0.325 3.633 0 6.218-2.771 11.789-7.145 15.545l-0.027 0.023c-17.835 15.010-38.211 27.871-60.22 37.744l-1.636 0.656c-3.452 1.711-5.895 5.003-6.394 8.903l-0.006 0.057c-0.002 0.073-0.003 0.158-0.003 0.244 0 3.978 2.016 7.484 5.082 9.554l0.041 0.026c53.177 34.727 87.829 93.958 87.829 161.284 0 106.039-85.961 192-192 192-0.424 0-0.847-0.001-1.27-0.004h0.065c-106.421-0.236-192.628-86.443-192.864-192.841v-0.023c0-0.003 0-0.007 0-0.011 0-67.086 34.713-126.065 87.157-159.953l0.747-0.452c2.857-2.036 4.698-5.338 4.698-9.070 0-0.265-0.009-0.529-0.028-0.789l0.002 0.035c-0.499-3.959-2.944-7.254-6.333-8.93l-0.067-0.030c-24.098-11.032-44.868-24.147-63.62-39.62l0.484 0.388c-4.62-3.945-7.53-9.776-7.53-16.286 0-1.187 0.097-2.352 0.283-3.486l-0.017 0.124c1.001-7.337 5.764-13.365 12.25-16.141l0.134-0.051c40.384-18.423 74.043-45.385 99.806-78.754l0.45-0.606c3.676-5.195 9.661-8.545 16.428-8.545 0.075 0 0.149 0 0.223 0.001h91.317c0.063-0.001 0.137-0.001 0.212-0.001 6.767 0 12.752 3.35 16.386 8.483l0.042 0.063c26.646 34.745 61.252 62.091 101.169 79.55l1.647 0.642zM412.576 802.144c1.248 3.035 3.712 5.353 6.77 6.377l0.078 0.023c1.368 0.685 2.981 1.087 4.688 1.087s3.32-0.401 4.75-1.115l-0.062 0.028c37.983-25.406 84.704-40.544 134.961-40.544 0.107 0 0.213 0 0.32 0h-0.017c14.304 0.192 28.576 1.6 42.656 4.256 0.51 0.083 1.098 0.13 1.696 0.13 6.133 0 11.104-4.971 11.104-11.104 0-0.035 0-0.069 0-0.104v0.005c-6.42-53.58-51.599-94.715-106.385-94.715-57.192 0-103.914 44.827-106.947 101.262l-0.012 0.27c0.256 11.648 2.4 23.2 6.4 34.144zM438.176 277.344c0.001 0.223 0.001 0.487 0.001 0.751 0 106.498-86.334 192.832-192.832 192.832s-192.832-86.334-192.832-192.832c0-67.112 34.285-126.217 86.295-160.755l0.712-0.444c3.348-1.73 5.597-5.166 5.597-9.127 0-0.392-0.022-0.779-0.065-1.16l0.004 0.047c-0.136-3.966-2.508-7.347-5.889-8.934l-0.063-0.026c-17.809-7.91-33.092-16.743-47.309-26.966l0.781 0.534c-32.763-23.008-59.341-52.593-78.244-86.993l-0.668-1.327c-2.621-4.54-4.168-9.985-4.168-15.792s1.547-11.252 4.251-15.947l-0.082 0.155c5.911-9.299 16.159-15.381 27.828-15.381 0.409 0 0.817 0.007 1.223 0.022l-0.059-0.002h407.040c11.633 0.026 21.844 6.092 27.665 15.227l0.079 0.133c2.621 4.54 4.168 9.985 4.168 15.792s-1.547 11.252-4.251 15.947l0.082-0.155c-19.436 36.237-46.052 66.26-78.154 89.067l-0.79 0.533c-13.428 9.688-28.7 18.521-44.839 25.767l-1.657 0.665c-3.294 1.288-5.721 4.139-6.39 7.616l-0.010 0.064c-0.042 0.35-0.067 0.756-0.067 1.167 0 3.627 1.885 6.813 4.73 8.632l0.041 0.025c53.134 34.591 87.792 93.671 87.872 160.852v0.012zM144.224 312.32c0.59 3.581 3.053 6.47 6.332 7.658l0.068 0.022c1.362 0.716 2.976 1.136 4.688 1.136s3.326-0.42 4.744-1.163l-0.056 0.027c37.888-26.183 84.664-42.045 135.112-42.655l0.152-0.001c15.229 0.225 29.948 1.764 44.237 4.509l-1.581-0.253c0.471 0.068 1.014 0.106 1.566 0.106 2.819 0 5.404-1.007 7.412-2.681l-0.019 0.015c2.145-1.733 3.505-4.363 3.505-7.311 0-0.435-0.030-0.863-0.087-1.282l0.005 0.049c-3.579-56.26-50.085-100.535-106.932-100.535-59.17 0-107.136 47.966-107.136 107.136 0 12.941 2.294 25.346 6.499 36.83l-0.238-0.744 1.728-0.864zM931.424 72.544c-13.437 9.69-28.72 18.523-44.87 25.767l-1.658 0.665c-3.11 1.403-5.362 4.226-5.943 7.619l-0.009 0.061c-0.044 0.356-0.069 0.768-0.069 1.186 0 3.614 1.873 6.791 4.7 8.614l0.040 0.024c53.234 34.912 87.904 94.308 87.904 161.802 0 106.516-86.348 192.864-192.864 192.864s-192.864-86.348-192.864-192.864c0-67.494 34.67-126.891 87.173-161.352l0.731-0.451c2.885-1.844 4.771-5.030 4.771-8.657 0-0.411-0.024-0.817-0.071-1.215l0.005 0.048c-0.143-3.973-2.527-7.355-5.921-8.934l-0.063-0.026c-17.796-7.911-33.068-16.744-47.275-26.965l0.779 0.533c-32.892-23.34-59.508-53.363-78.273-88.237l-0.671-1.363c-2.621-4.54-4.168-9.985-4.168-15.792s1.547-11.252 4.251-15.947l-0.082 0.155c5.904-9.264 16.113-15.328 27.739-15.36h406.629c11.621 0.037 21.817 6.101 27.633 15.227l0.079 0.133c2.621 4.54 4.168 9.985 4.168 15.792s-1.547 11.252-4.251 15.947l0.082-0.155c-18.934 36.648-45.138 67.090-76.914 90.378l-0.718 0.502zM677.536 313.184c0.602 2.99 2.498 5.443 5.066 6.79l0.054 0.026c1.366 0.721 2.986 1.144 4.704 1.144s3.338-0.423 4.76-1.171l-0.056 0.027c37.879-26.177 84.643-42.038 135.078-42.655l0.154-0.001c15.239 0.223 29.969 1.762 44.269 4.509l-1.581-0.253c0.476 0.070 1.026 0.11 1.586 0.11 2.814 0 5.392-1.009 7.392-2.684l-0.018 0.015c2.129-1.727 3.479-4.343 3.479-7.274 0-0.448-0.032-0.889-0.092-1.32l0.006 0.050c-3.755-56.070-50.155-100.129-106.847-100.129-59.134 0-107.072 47.938-107.072 107.072 0 12.814 2.251 25.101 6.379 36.49l-0.236-0.745h2.976z" />
<glyph unicode="&#xe93e;" glyph-name="Gender-specific-programming" d="M725.344 960c-0.128 0-0.28 0.001-0.432 0.001-99.208 0-179.633-80.424-179.633-179.633 0-99.056 80.178-179.386 179.177-179.632h0.024c0.128 0 0.28-0.001 0.432-0.001 99.208 0 179.633 80.424 179.633 179.633 0 99.056-80.178 179.386-179.177 179.632h-0.024zM725.344 685.664c-0.638-0.015-1.39-0.024-2.144-0.024-52.542 0-95.136 42.594-95.136 95.136 0 0.009 0 0.017 0 0.026v-0.001c0 11.584 2.336 23.040 6.816 33.696 0.934 2.716 2.736 4.932 5.068 6.37l0.052 0.030c1.318 0.596 2.859 0.944 4.48 0.944s3.162-0.347 4.55-0.972l-0.070 0.028c33.825-21.117 74.904-33.639 118.907-33.639 13.762 0 27.239 1.225 40.326 3.572l-1.377-0.205c0.998 0.508 2.176 0.806 3.424 0.806s2.426-0.298 3.468-0.826l-0.044 0.020c1.822-1.418 2.983-3.612 2.983-6.076 0-0.114-0.002-0.227-0.007-0.34l0.001 0.016c0.051-1.163 0.080-2.528 0.080-3.899 0-51.137-40.523-92.809-91.208-94.656l-0.169-0.005zM955.296 357.984c0 0.055 0 0.121 0 0.186 0 128.183-103.913 232.096-232.096 232.096-54.145 0-103.959-18.541-143.441-49.619l0.497 0.377c-5.126-3.933-8.397-10.061-8.397-16.953 0-2.489 0.427-4.879 1.211-7.1l-0.046 0.149c12.8-36.256 26.016-85.344 46.080-160 10.24-38.4 22.592-85.344 37.952-139.52 2.499-8.674 3.937-18.638 3.937-28.937 0-24.111-7.878-46.383-21.2-64.381l0.208 0.294c-6.408-8.434-13.877-15.628-22.306-21.548l-0.318-0.212c-5.506-3.728-9.077-9.953-9.077-17.012 0-0.771 0.043-1.532 0.126-2.28l-0.008 0.092 10.688-128c0.694-10.976 9.767-19.616 20.857-19.616 0.014 0 0.028 0 0.041 0h170.654c10.903 0.162 19.815 8.475 20.92 19.108l0.008 0.092 18.752 224.416c0.445 5.38 4.816 9.607 10.219 9.823l0.021 0.001h76.8c0.010 0 0.021 0 0.032 0 11.541 0 20.896 9.355 20.896 20.896 0 0 0 0 0 0v0l-3.008 147.648zM72.96 176.64c3.848-5.098 9.844-8.398 16.617-8.544h98.167c5.155-0.068 9.457-3.638 10.64-8.436l0.016-0.076 39.264-206.528c1.872-9.753 10.322-17.026 20.477-17.056h125.859c10.207 0.169 18.691 7.341 20.868 16.91l0.028 0.146 39.264 206.528c0.855 4.864 5.048 8.513 10.093 8.513 0.052 0 0.103 0 0.154-0.001h100.248c6.797 0.141 12.795 3.442 16.601 8.49l0.039 0.054c2.849 3.49 4.574 7.994 4.574 12.901 0 1.934-0.268 3.805-0.769 5.579l0.035-0.144c-85.312 305.504-80.192 322.144-128 366.944-3.785 3.478-8.854 5.609-14.422 5.609-7.527 0-14.143-3.896-17.944-9.781l-0.051-0.084-73.376-116.48c-3.862-5.903-10.442-9.749-17.92-9.749s-14.058 3.846-17.87 9.668l-0.050 0.081-74.688 117.312c-3.435 5.216-8.896 8.857-15.238 9.809l-0.122 0.015c-0.772 0.099-1.664 0.156-2.57 0.156-5.602 0-10.699-2.165-14.499-5.704l0.013 0.012c-49.056-45.248-45.216-62.72-128-367.808-0.734-1.998-1.158-4.305-1.158-6.712 0-4.36 1.393-8.395 3.759-11.684l-0.041 0.060zM141.664 780.384c0-99.199 80.417-179.616 179.616-179.616s179.616 80.417 179.616 179.616v0c0 99.199-80.417 179.616-179.616 179.616s-179.616-80.417-179.616-179.616v0zM321.28 685.664c-43.19 0.1-79.611 28.965-91.128 68.448l-0.168 0.672c-0.285 0.898-0.45 1.93-0.45 3.001 0 4.594 3.026 8.482 7.193 9.779l0.073 0.019c30.089 10.569 55.779 27.047 76.79 48.182l0.010 0.010c1.718 1.857 4.168 3.016 6.889 3.016 0.132 0 0.263-0.003 0.394-0.008l-0.019 0.001c0.126 0.006 0.273 0.009 0.422 0.009 2.836 0 5.403-1.153 7.258-3.016v0c21.021-21.145 46.711-37.623 75.396-47.76l1.404-0.432c4.24-1.316 7.266-5.204 7.266-9.799 0-1.071-0.164-2.104-0.469-3.074l0.020 0.073c-11.4-40.181-47.76-69.12-90.879-69.12 0 0-0.001 0-0.001 0v0z" />
<glyph unicode="&#xe93f;" glyph-name="Health-Assessment" d="M658.304 960h-292.576c-20.224 0-36.576-16.384-36.576-36.576v-73.152c0-20.16 16.352-36.544 36.576-36.544h292.576c20.16 0 36.544 16.352 36.544 36.544v73.152c0 20.192-16.352 36.576-36.544 36.576zM804.576 886.848h-18.304c-10.091 0-18.272-8.181-18.272-18.272v0-18.304c0-60.583-49.113-109.696-109.696-109.696-0.011 0-0.022 0-0.034 0h-292.51c-0.010 0-0.021 0-0.032 0-60.579 0-109.692 49.090-109.728 109.661v18.307c0 10.091-8.181 18.272-18.272 18.272v0h-18.304c-60.551-0.036-109.628-49.113-109.664-109.661v-731.427c0-60.579 49.090-109.692 109.661-109.728h585.155c60.583 0 109.696 49.113 109.696 109.696 0 0.011 0 0.022 0 0.034v-0.002 731.424c0 60.583-49.113 109.696-109.696 109.696v0zM751.904 448l-256-256c-9.928-9.909-23.632-16.036-38.768-16.036s-28.84 6.127-38.769 16.037l-125.791 125.791c-5.552 8.432-8.857 18.773-8.857 29.885 0 30.292 24.556 54.848 54.848 54.848 9.991 0 19.357-2.671 27.425-7.338l-0.264 0.141 73.12-73.12c3.333-3.449 8.001-5.59 13.168-5.59s9.835 2.141 13.163 5.585l0.005 0.005 209.184 198.944c8.432 5.552 18.773 8.857 29.885 8.857 30.292 0 54.848-24.556 54.848-54.848 0-9.991-2.671-19.357-7.338-27.425l0.141 0.264z" />
<glyph unicode="&#xe940;" glyph-name="Icon-1-2" d="M512 702.169c68.55 0 124.121 55.571 124.121 124.121s-55.571 124.121-124.121 124.121v0c-68.55 0-124.121-55.571-124.121-124.121s55.571-124.121 124.121-124.121v0zM139.636 329.806c68.55 0 124.121 55.571 124.121 124.121s-55.571 124.121-124.121 124.121v0c-68.55 0-124.121-55.571-124.121-124.121s55.571-124.121 124.121-124.121v0zM512 329.806c68.55 0 124.121 55.571 124.121 124.121s-55.571 124.121-124.121 124.121v0c-68.55 0-124.121-55.571-124.121-124.121s55.571-124.121 124.121-124.121v0zM884.364 329.806c68.55 0 124.121 55.571 124.121 124.121s-55.571 124.121-124.121 124.121v0c-68.55 0-124.121-55.571-124.121-124.121s55.571-124.121 124.121-124.121v0zM512-42.558c68.55 0 124.121 55.571 124.121 124.121s-55.571 124.121-124.121 124.121v0c-68.55 0-124.121-55.571-124.121-124.121s55.571-124.121 124.121-124.121v0z" />
<glyph unicode="&#xe941;" glyph-name="Icon-1" d="M676.576 886.848c-20.084-0.058-39.462-2.988-57.774-8.401l1.454 0.369c-5.368-1.798-9.583-5.773-11.666-10.849l-0.046-0.127c-1.232-2.337-1.956-5.108-1.956-8.048s0.723-5.711 2.002-8.144l-0.046 0.096c30.48-47.097 48.599-104.663 48.599-166.46 0-60.829-17.555-117.558-47.876-165.396l0.749 1.265c-1.232-2.337-1.956-5.108-1.956-8.048s0.723-5.711 2.002-8.144l-0.046 0.096c2.129-5.203 6.344-9.178 11.578-10.937l0.134-0.039c16.885-5.118 36.29-8.064 56.384-8.064 111.093 0 201.152 90.059 201.152 201.152s-90.059 201.152-201.152 201.152c-0.022 0-0.045 0-0.067 0h0.003l-1.472-1.472zM710.944 374.848h-24.864c-7.66-0.057-14.278-4.46-17.516-10.863l-0.052-0.113c-1.82-2.79-2.902-6.204-2.902-9.872s1.082-7.082 2.945-9.942l-0.043 0.070c84.019-86.524 135.878-204.676 136.064-334.94v-0.036c-0.138-19.054-2.805-37.427-7.679-54.878l0.351 1.47c-1.23-2.338-1.952-5.109-1.952-8.048s0.722-5.71 1.998-8.145l-0.046 0.097c3.441-4.371 8.693-7.183 14.606-7.296h138.994c40.378 0 73.116 32.715 73.152 73.085v3.683c0.104 3.22 0.163 7.005 0.163 10.804 0 181.865-135.738 332.028-311.43 354.703l-1.789 0.189zM347.424 484.576c0.754-0.010 1.645-0.016 2.537-0.016 111.093 0 201.152 90.059 201.152 201.152s-90.059 201.152-201.152 201.152c-0.892 0-1.783-0.006-2.672-0.017l0.135 0.001c-109.997-1.432-198.615-90.935-198.615-201.136s88.618-199.704 198.48-201.135l0.135-0.001zM0 9.152c0-40.401 32.751-73.152 73.152-73.152v0h548.576c40.383 0 73.12 32.737 73.12 73.12 0 0.011 0 0.023 0 0.034v-0.002c0.104 3.22 0.163 7.005 0.163 10.804 0 181.865-135.738 332.028-311.43 354.703l-1.789 0.189c-10.317 1.088-22.288 1.708-34.404 1.708-191.859 0-347.392-155.533-347.392-347.392 0-0.612 0.002-1.223 0.005-1.834v0.094-18.272z" />
<glyph unicode="&#xe944;" glyph-name="Instagram" d="M512 867.84c136.789 0 153.003-0.64 206.805-3.029 50.005-2.219 77.013-10.624 94.976-17.621 23.070-8.625 42.725-21.639 58.803-38.152l0.034-0.035c17.963-18.005 29.013-34.987 38.187-58.795 6.997-18.005 15.36-45.227 17.579-95.019 2.432-53.973 2.987-70.187 2.987-206.805 0-136.789-0.555-153.003-2.987-206.763-2.176-50.005-10.581-77.013-17.579-95.019-8.63-23.054-21.644-42.693-38.151-58.76l-0.036-0.035c-16.097-16.571-35.757-29.59-57.751-37.83l-1.086-0.357c-17.963-7.040-45.184-15.403-94.976-17.621-54.016-2.389-70.187-2.987-206.805-2.987-136.789 0-153.003 0.597-206.805 2.987-50.005 2.219-77.013 10.581-94.976 17.621-23.070 8.625-42.725 21.639-58.803 38.152l-0.034 0.035c-16.566 16.087-29.583 35.731-37.829 57.709l-0.357 1.086c-6.997 18.005-15.36 45.227-17.579 95.019-2.432 53.973-2.987 70.187-2.987 206.763 0 136.832 0.555 153.003 2.987 206.805 2.176 50.005 10.581 77.013 17.579 95.019 9.216 23.808 20.395 40.96 38.187 58.795 18.005 18.005 34.987 29.013 58.837 38.187 17.963 6.997 45.184 15.403 94.976 17.621 53.803 2.389 69.973 2.987 206.805 2.987zM512 960c-139.008 0-156.416-0.597-210.987-2.987-54.4-2.432-91.819-11.221-124.203-23.808-35.552-13.578-65.849-33.727-90.751-59.176l-0.044-0.045c-25.446-24.906-45.586-55.123-58.639-88.868l-0.583-1.713c-12.587-32.597-21.376-69.803-23.808-124.203-2.389-54.784-2.987-72.192-2.987-211.2s0.597-156.416 2.987-210.987c2.432-54.4 11.221-91.819 23.808-124.203 13.227-33.792 30.592-62.421 59.221-90.795 24.908-25.38 55.128-45.453 88.869-58.429l1.713-0.579c32.597-12.629 69.803-21.419 124.203-23.808 54.613-2.389 72.021-2.987 210.987-2.987 139.008 0 156.416 0.597 211.029 2.987 54.4 2.389 91.776 11.179 124.16 23.808 35.47 13.549 65.705 33.623 90.586 58.97l0.038 0.038c25.38 24.908 45.453 55.128 58.429 88.869l0.579 1.713c12.587 32.597 21.376 69.803 23.808 124.203 2.389 54.613 2.987 72.021 2.987 210.987 0 139.008-0.597 156.416-2.987 211.029-2.432 54.4-11.221 91.776-23.808 124.16-13.041 35.72-33.054 66.151-58.568 90.953l-0.056 0.055c-24.908 25.38-55.128 45.453-88.869 58.429l-1.713 0.579c-32.597 12.587-69.803 21.461-124.203 23.808-54.784 2.56-72.192 3.2-211.2 3.2zM512 710.997c-145.23-0.049-262.949-117.767-262.997-262.993v-0.005c0.049-145.23 117.767-262.949 262.993-262.997h0.005c145.23 0.049 262.949 117.767 262.997 262.993v0.005c-0.049 145.23-117.767 262.949-262.993 262.997h-0.005zM512 277.419c-94.224 0.012-170.603 76.399-170.603 170.624 0 94.233 76.391 170.624 170.624 170.624 0.008 0 0.015 0 0.023 0h-0.001c94.224-0.012 170.603-76.399 170.603-170.624 0-94.233-76.391-170.624-170.624-170.624-0.008 0-0.015 0-0.023 0h0.001zM846.805 721.408c0.014-0.482 0.021-1.050 0.021-1.619 0-33.932-27.508-61.44-61.44-61.44s-61.44 27.508-61.44 61.44c0 0.569 0.008 1.137 0.023 1.702l-0.002-0.083c0.903 33.229 28.056 59.821 61.419 59.821s60.515-26.592 61.417-59.738l0.002-0.083z" />
<glyph unicode="&#xe945;" glyph-name="leading-icon" d="M128 618.667v85.333h768v-85.333h-768zM128 405.333h768v85.333h-768v-85.333zM128 192h768v85.333h-768v-85.333z" />
<glyph unicode="&#xe948;" glyph-name="LinkedIn" d="M948.181 960h-872.576c-41.813 0-75.605-32.981-75.605-73.813v-876.203c0-40.789 33.792-73.984 75.605-73.984h872.576c41.813 0 75.819 33.195 75.819 73.813v876.373c0 40.832-34.005 73.813-75.819 73.813zM303.787 87.381h-151.979v488.832h151.979v-488.832zM227.84 642.816c-1.001-0.041-2.176-0.064-3.357-0.064-48.636 0-88.064 39.428-88.064 88.064s39.428 88.064 88.064 88.064c1.181 0 2.356-0.023 3.525-0.069l-0.168 0.005c47.772-1.085 86.084-40.069 86.084-88s-38.311-86.915-85.983-87.998l-0.101-0.002zM872.619 87.381h-151.808v237.653c0 56.576-1.024 129.579-79.019 129.579-78.976 0-91.008-61.824-91.008-125.611v-241.621h-151.595v488.832h145.621v-66.816h2.005c20.181 38.4 69.803 79.019 143.573 79.019 153.813 0 182.187-101.205 182.187-232.832v-268.203z" />
<glyph unicode="&#xe949;" glyph-name="List-2" d="M109.728 704c0.557-0.010 1.215-0.016 1.874-0.016 60.601 0 109.728 49.127 109.728 109.728s-49.127 109.728-109.728 109.728c-0.659 0-1.316-0.006-1.972-0.017l0.099 0.001c-59.79-1.054-107.854-49.77-107.854-109.712s48.065-108.659 107.756-109.711l0.099-0.001zM950.848 740.576h-548.544c-39.737 0.858-71.622 33.273-71.622 73.136s31.885 72.279 71.542 73.135l0.080 0.001h548.544c39.737-0.858 71.622-33.273 71.622-73.136s-31.885-72.279-71.542-73.135l-0.080-0.001zM109.728 338.272c60.601 0 109.728 49.127 109.728 109.728s-49.127 109.728-109.728 109.728v0c-60.601 0-109.728-49.127-109.728-109.728s49.127-109.728 109.728-109.728v0zM950.848 374.848h-548.544c-40.401 0-73.152 32.751-73.152 73.152s32.751 73.152 73.152 73.152h548.544c40.401 0 73.152-32.751 73.152-73.152s-32.751-73.152-73.152-73.152v0zM109.728-27.424c0.557-0.010 1.215-0.016 1.874-0.016 60.601 0 109.728 49.127 109.728 109.728s-49.127 109.728-109.728 109.728c-0.659 0-1.316-0.006-1.972-0.017l0.099 0.001c-59.79-1.054-107.854-49.77-107.854-109.712s48.065-108.659 107.756-109.711l0.099-0.001zM950.848 9.152h-548.544c-0.455-0.010-0.992-0.016-1.53-0.016-40.401 0-73.152 32.751-73.152 73.152s32.751 73.152 73.152 73.152c0.538 0 1.074-0.006 1.61-0.017l-0.080 0.001h548.544c39.737-0.858 71.622-33.273 71.622-73.136s-31.885-72.279-71.542-73.135l-0.080-0.001z" />
<glyph unicode="&#xe94a;" glyph-name="List" d="M396.075 789.461h542.592v-74.581h-542.592v74.581zM187.904 756.48l-51.115 41.387-46.976-58.069 107.392-86.869 148.907 173.141-56.576 48.597-101.632-118.187zM396.075 180.437h542.592v-74.581h-542.592v74.581zM187.904 147.413l-51.115 41.387-46.976-58.069 107.392-86.869 148.907 173.141-56.576 48.597-101.632-118.187zM396.075 496.597h542.592v-74.581h-542.592v74.581zM263.424 574.592l-62.72-62.592-62.72 62.635-52.651-52.693 62.635-62.805-62.635-62.635 52.693-52.736 62.677 62.72 62.72-62.72 52.736 52.736-62.635 62.635 62.635 62.805-52.736 52.651z" />
<glyph unicode="&#xe94b;" glyph-name="location_on" d="M512 960c-0.076 0-0.166 0-0.256 0-197.797 0-358.144-160.347-358.144-358.144 0-0.090 0-0.18 0-0.27v0.014c0-268.8 358.4-665.6 358.4-665.6s358.4 396.8 358.4 665.6c0 198.144-160.256 358.4-358.4 358.4zM512 473.6c-69.28 1.845-124.737 58.446-124.737 128s55.458 126.155 124.567 127.996l0.17 0.004c69.28-1.845 124.737-58.446 124.737-128s-55.458-126.155-124.567-127.996l-0.17-0.004z" />
<glyph unicode="&#xe94c;" glyph-name="LogoChevron-Size24" d="M171.349 225.835c-0.115-0.076-0.324-0.203-0.535-0.327l-0.105-0.057-0.043 52.48c5.521 5.044 53.165 31.691 101.086 57.893l44.578 22.32c52.309 27.989 99.499 51.797 122.453 59.008 14.619 4.824 32.123 8.921 50.11 11.528l1.73 0.206c5.861 0.838 12.989 1.479 20.207 1.777l0.444 0.015h1.536c1.975-0.014 3.906-0.106 5.815-0.275l-0.268 0.019c3.627-0.213 8.704-0.683 15.104-1.536 12.757-1.749 30.592-5.12 51.797-11.733 23.040-7.168 70.187-31.019 122.453-58.965 92.473-48.523 140.104-75.172 187.451-102.261l-41.83 22.047v-52.48l-0.64 0.341c-8.357 6.857-62.821 37.413-117.618 67.439l-48.91 24.551c-53.845 28.8-96.597 50.048-114.517 55.637-12.509 4.134-27.491 7.649-42.885 9.891l-1.488 0.178c-4.397 0.635-9.799 1.138-15.265 1.393l-0.394 0.015-2.859-0.128c-4.735-0.347-8.84-0.801-12.901-1.394l0.954 0.114c-16.882-2.42-31.864-5.935-46.322-10.615l1.948 0.545c-17.92-5.547-60.715-26.88-114.517-55.637-52.821-28.245-113.749-62.293-166.571-91.989zM171.349 345.728c-0.13-0.078-0.34-0.192-0.552-0.3l-0.088-0.041-0.043 52.437c5.553 5.061 53.195 31.722 101.116 57.937l44.548 22.319c52.309 27.989 99.499 51.797 122.453 58.965 14.621 4.825 32.125 8.923 50.112 11.528l1.728 0.205c5.986 0.865 13.247 1.522 20.6 1.821l0.434 0.014h0.043c0.357 0.018 0.774 0.028 1.195 0.028s0.838-0.010 1.253-0.030l-0.058 0.002 4.267-0.256c3.627-0.256 8.704-0.683 15.104-1.579 12.757-1.707 30.592-5.12 51.797-11.733 23.040-7.168 70.187-30.976 122.453-58.965 92.375-48.472 140.005-75.12 187.35-102.209l-41.728 21.995v-52.48l-0.64 0.341c-8.119 6.732-62.583 37.302-117.378 67.345l-49.15 24.687c-53.845 28.757-96.597 50.048-114.517 55.637-12.509 4.134-27.491 7.649-42.885 9.891l-1.488 0.178c-4.386 0.63-9.787 1.133-15.253 1.393l-0.406 0.015-2.859-0.171c-4.726-0.332-8.834-0.772-12.899-1.348l0.952 0.111c-16.882-2.42-31.864-5.935-46.322-10.615l1.948 0.545c-17.92-5.589-60.715-26.88-114.517-55.637-103.908-54.696-158.387-85.266-212.528-116.358l45.958 24.326zM171.349 465.664c-0.114-0.076-0.323-0.203-0.534-0.327l-0.106-0.057-0.043 52.48c5.63 5.102 53.274 31.764 101.197 57.979l44.467 22.277c52.309 27.947 99.499 51.797 122.453 58.965 14.621 4.825 32.125 8.923 50.112 11.528l1.728 0.205c5.985 0.865 13.246 1.522 20.599 1.821l0.436 0.014h0.043c0.221 0.007 0.481 0.011 0.742 0.011 0.58 0 1.155-0.019 1.725-0.058l-0.077 0.004c7.281-0.358 13.959-0.998 20.545-1.928l-1.174 0.136c12.757-1.707 30.592-5.12 51.797-11.733 23.040-7.168 70.187-31.019 122.453-58.965 46.080-24.661 98.219-53.632 145.621-80.213v-52.48l-0.64 0.341c-8.216 6.783-62.681 37.354-117.478 67.396l-49.050 24.636c-53.845 28.757-96.597 50.005-114.517 55.595-12.507 4.147-27.487 7.676-42.88 9.932l-1.493 0.18c-4.413 0.624-9.818 1.113-15.287 1.352l-0.372 0.013-2.859-0.128c-4.734-0.346-8.839-0.801-12.9-1.394l0.953 0.114c-16.881-2.419-31.863-5.935-46.321-10.614l1.948 0.545c-17.92-5.547-60.715-26.837-114.517-55.595-104.254-54.879-158.733-85.45-212.877-116.538l46.307 24.506z" />
<glyph unicode="&#xe94d;" glyph-name="LogoChevron-Size32" d="M128.8 198.048c-0.124-0.077-0.375-0.215-0.629-0.349l-0.139-0.067-0.032 59.008c6.105 5.619 59.714 35.619 113.635 65.117l50.269 25.187c58.816 31.456 111.872 58.24 137.76 66.336 16.44 5.43 36.126 10.044 56.354 12.983l1.95 0.233c6.569 0.949 14.575 1.682 22.681 2.030l0.519 0.018h1.76c2.412-0.074 4.58-0.189 6.736-0.35l-0.496 0.030c4.064-0.256 9.792-0.768 16.96-1.76 14.336-1.92 34.432-5.76 58.304-13.184 25.856-8.064 78.912-34.88 137.76-66.336 51.84-27.712 110.496-60.352 163.808-90.24v-59.040l-0.704 0.384c-9.411 7.72-70.689 42.106-132.34 75.896l-55.020 27.624c-60.544 32.384-108.672 56.32-128.832 62.592-14.073 4.65-30.927 8.606-48.246 11.128l-1.674 0.2c-4.591 0.683-10.323 1.254-16.122 1.577l-0.518 0.023h-0.96l-3.2-0.192c-5.324-0.377-9.957-0.877-14.539-1.533l1.067 0.125c-11.872-1.6-29.12-4.864-49.92-11.328-20.16-6.304-68.288-30.208-128.832-62.592-59.424-31.776-128-70.112-187.36-103.52zM128.8 332.96c-0.124-0.077-0.375-0.215-0.629-0.349l-0.139-0.067-0.032 59.008c6.105 5.619 59.714 35.619 113.635 65.117l50.269 25.187c58.816 31.456 111.872 58.24 137.76 66.336 16.442 5.421 36.129 10.025 56.359 12.953l1.945 0.231c6.558 0.957 14.562 1.701 22.666 2.061l0.534 0.019h1.76c2.412-0.074 4.58-0.189 6.736-0.35l-0.496 0.030c4.064-0.256 9.792-0.768 16.96-1.76 14.336-1.92 34.432-5.76 58.304-13.184 25.856-8.064 78.912-34.88 137.76-66.336 51.84-27.712 110.496-60.352 163.808-90.24v-59.040l-0.704 0.384c-9.411 7.72-70.689 42.106-132.34 75.896l-55.020 27.624c-60.544 32.384-108.672 56.32-128.832 62.592-14.073 4.65-30.927 8.606-48.246 11.128l-1.674 0.2c-4.591 0.683-10.323 1.254-16.122 1.577l-0.518 0.023h-0.96l-3.2-0.192c-5.324-0.377-9.957-0.877-14.539-1.533l1.067 0.125c-11.872-1.6-29.12-4.864-49.92-11.328-20.16-6.304-68.288-30.208-128.832-62.592-59.424-31.776-128-70.112-187.36-103.52zM128.8 467.84c-0.111-0.065-0.363-0.193-0.617-0.318l-0.151-0.066-0.032 59.008c6.105 5.619 59.714 35.619 113.635 65.117l50.269 25.187c58.816 31.456 111.872 58.24 137.76 66.336 16.444 5.423 36.131 10.027 56.361 12.953l1.943 0.231c6.721 0.976 14.883 1.721 23.148 2.064l0.5 0.016h0.064c0.207 0.006 0.451 0.009 0.696 0.009 0.69 0 1.373-0.027 2.050-0.079l-0.090 0.006c8.194-0.404 15.707-1.124 23.116-2.169l-1.324 0.153c14.336-1.92 34.432-5.76 58.304-13.184 25.856-8.064 78.912-34.88 137.76-66.336 51.84-27.712 110.496-60.352 163.808-90.24v-59.040l-0.704 0.384c-9.411 7.72-70.689 42.106-132.34 75.896l-55.020 27.624c-60.544 32.384-108.672 56.32-128.832 62.592-14.073 4.65-30.927 8.605-48.246 11.128l-1.674 0.2c-4.939 0.719-11.009 1.291-17.152 1.583l-0.448 0.017-3.2-0.192c-5.319-0.375-9.951-0.876-14.533-1.533l1.061 0.125c-11.872-1.6-29.12-4.864-49.92-11.328-20.16-6.304-68.288-30.208-128.832-62.592-59.424-31.776-128-70.112-187.36-103.52z" />
<glyph unicode="&#xe94e;" glyph-name="Mail-Property-132" d="M0.128 683.424l511.808-255.872 511.808 255.872c-1.92 32.608 0 120.576 0 120.576h-1023.616s1.92-87.968 0-120.576zM1024 596.448l-512-256-512 256v-504.448h1024v504.448z" />
<glyph unicode="&#xe94f;" glyph-name="Mail-Property-1Default" d="M0.171 698.069l511.787-255.872 511.829 255.872c-1.92 32.64 0 120.576 0 120.576h-1023.616s1.877-87.936 0-120.576zM1024 581.76l-512-256-512 256v-504.405h1024v504.363z" />
<glyph unicode="&#xe950;" glyph-name="Medical-necessity" d="M298.656 417.696v-110.080c0-15.075 12.221-27.296 27.296-27.296 0.011 0 0.023 0 0.034 0h82.334c0.010 0 0.021 0 0.032 0 11.77 0 21.312-9.542 21.312-21.312 0-0.011 0-0.023 0-0.034v0.002-82.336c0-15.075 12.221-27.296 27.296-27.296h110.080c15.075 0 27.296 12.221 27.296 27.296v0 82.336c0 11.788 9.556 21.344 21.344 21.344v0h82.336c0.009 0 0.021 0 0.032 0 15.075 0 27.296 12.221 27.296 27.296v0 110.080c0 0.010 0 0.021 0 0.032 0 15.075-12.221 27.296-27.296 27.296-0.011 0-0.023 0-0.034 0h-82.334c0 0 0 0 0 0-11.777 0-21.326 9.538-21.344 21.31v82.37c0 15.075-12.221 27.296-27.296 27.296v0h-110.080c-15.068-0.018-27.278-12.228-27.296-27.294v-82.37c-0.018-11.774-9.567-21.312-21.344-21.312 0 0 0 0 0 0h-82.336c-0.010 0-0.021 0-0.032 0-15.075 0-27.296-12.221-27.296-27.296 0-0.011 0-0.023 0-0.034v0.002zM832 832h-117.344c-5.885 0-10.656-4.771-10.656-10.656v0-64c0-0.009 0-0.021 0-0.032 0-5.885 4.771-10.656 10.656-10.656 0 0 0 0 0 0h96c0 0 0 0 0 0 11.777 0 21.326-9.538 21.344-21.31v-682.69c-0.018-11.774-9.567-21.312-21.344-21.312 0 0 0 0 0 0h-597.312c0 0 0 0 0 0-11.777 0-21.326 9.538-21.344 21.31v682.69c0.018 11.774 9.567 21.312 21.344 21.312 0 0 0 0 0 0h96c0 0 0 0 0 0 5.885 0 10.656 4.771 10.656 10.656 0 0.011 0 0.022 0 0.034v-0.002 64c0 5.885-4.771 10.656-10.656 10.656h-117.344c-47.134 0-85.344-38.21-85.344-85.344v0-725.312c0-47.134 38.21-85.344 85.344-85.344v0h640c47.134 0 85.344 38.21 85.344 85.344v725.312c0 47.134-38.21 85.344-85.344 85.344v0zM426.656 682.656h170.688c23.558 0 42.656 19.098 42.656 42.656 0 0.011 0 0.023 0 0.034v-0.002 106.656c-1.081 69.87-57.975 126.094-128 126.094-70.7 0-128.014-57.314-128.014-128.014 0-0.675 0.005-1.349 0.016-2.022l-0.001 0.102v-102.816c0-0.009 0-0.021 0-0.032 0-23.558 19.098-42.656 42.656-42.656v0zM512 874.656c17.673 0 32-14.327 32-32s-14.327-32-32-32c-17.673 0-32 14.327-32 32v0c0.231 17.579 14.421 31.769 31.978 32h0.022z" />
<glyph unicode="&#xe951;" glyph-name="Medical-Services" d="M316.16 425.376l-60.16-73.376c-1.013-1.084-2.452-1.76-4.048-1.76s-3.035 0.676-4.045 1.756l-0.003 0.003-34.56 33.28c-5.792 8.835-15.649 14.589-26.849 14.589-17.673 0-32-14.327-32-32 0-11.847 6.438-22.191 16.007-27.723l0.154-0.082 62.72-62.72c5.785-5.803 13.784-9.397 22.622-9.408h0.002c0.675-0.050 1.463-0.079 2.257-0.079 8.952 0 17.057 3.625 22.927 9.487v0l85.312 106.656c4.002 5.306 6.409 12.010 6.409 19.276 0 17.779-14.413 32.192-32.192 32.192-9.819 0-18.611-4.396-24.515-11.327l-0.038-0.045v1.28zM361.376 665.184c-5.582 4.519-12.77 7.255-20.596 7.255-9.784 0-18.57-4.276-24.59-11.061l-0.030-0.034-60.16-74.688c-1.013-1.084-2.452-1.76-4.048-1.76s-3.035 0.676-4.045 1.756l-0.003 0.003-34.56 32c-4.040 1.978-8.791 3.134-13.812 3.134-17.673 0-32-14.327-32-32 0-5.013 1.153-9.756 3.207-13.98l-0.083 0.19 64-64c5.79-5.791 13.788-9.374 22.624-9.376h-1.28c9.484 0.511 17.82 5.029 23.41 11.878l0.046 0.058 85.344 106.656c4.319 5.457 6.929 12.438 6.929 20.030 0 10.16-4.674 19.228-11.989 25.171l-0.060 0.047 1.696-1.28zM586.656 554.656c0 17.673-14.327 32-32 32v0h-106.656c-17.673 0-32-14.327-32-32s14.327-32 32-32v0h106.656c17.673 0 32 14.327 32 32v0zM448 352c-17.673 0-32-14.327-32-32s14.327-32 32-32v0h106.656c17.673 0 32 14.327 32 32s-14.327 32-32 32v0h-106.656zM840.96 716.384l-231.264 231.232c-7.663 7.609-18.203 12.329-29.845 12.384h-494.507c-47.134 0-85.344-38.21-85.344-85.344v0-853.312c0-47.134 38.21-85.344 85.344-85.344v0h554.656c0.010 0 0.021 0 0.032 0 11.77 0 21.312 9.542 21.312 21.312 0 0.011 0 0.023 0 0.034v-0.002 42.656c0 11.788-9.556 21.344-21.344 21.344v0h-533.344c-11.763 0.018-21.294 9.549-21.312 21.31v810.69c0.018 11.763 9.549 21.294 21.31 21.312h437.346c5.885 0 10.656-4.771 10.656-10.656v0-117.344c0.018-47.12 38.221-85.312 85.344-85.312h117.344c0 0 0 0 0 0 5.885 0 10.656-4.771 10.656-10.656 0-0.011 0-0.022 0-0.034v0.002-224h85.344v259.84c-0.050 11.664-4.771 22.216-12.387 29.891l0.003-0.003zM597.344 204.384v-109.664c0-0.001 0-0.002 0-0.004 0-15.165 12.167-27.488 27.272-27.74h82.36c0 0 0 0 0 0 11.777 0 21.326-9.538 21.344-21.31v-82.37c0.018-15.068 12.228-27.278 27.294-27.296h110.082c0.009 0 0.021 0 0.032 0 15.075 0 27.296 12.221 27.296 27.296v0 82.368c0.018 11.763 9.549 21.294 21.31 21.312h82.37c15.075 0 27.296 12.221 27.296 27.296 0 0.011 0 0.023 0 0.034v-0.002 110.080c0 15.075-12.221 27.296-27.296 27.296v0h-82.368c0 0 0 0 0 0-11.77 0-21.312 9.542-21.312 21.312 0 0.011 0 0.022 0 0.034v-0.002 82.336c0 15.075-12.221 27.296-27.296 27.296-0.011 0-0.023 0-0.034 0h-110.078c-15.075 0-27.296-12.221-27.296-27.296v0-82.336c0-11.788-9.556-21.344-21.344-21.344v0h-82.336c-15.075 0-27.296-12.221-27.296-27.296v0z" />
<glyph unicode="&#xe952;" glyph-name="Meditation-Property-124" d="M975.275 674.432c-3.163 0.083-6.888 0.13-10.623 0.13-65.329 0-127.286-14.434-182.857-40.287l2.675 1.117c11.733-83.157 14.507-163.285 2.005-243.456-15.915-102.272-56.32-202.112-130.389-307.499 245.931 44.373 349.312 215.68 349.312 559.915 0 0.043 0 0.094 0 0.145 0 8.269-3.342 15.758-8.748 21.19l0.001-0.001c-5.555 5.317-13.068 8.627-21.353 8.746h-0.023zM544.981 831.147c59.569-54.161 110.192-116.743 150.334-186.145l1.986-3.721c13.184-84.309 16.597-161.067 4.864-236.245-14.933-96.043-55.168-192.597-136.917-300.331-113.877 110.208-168.277 207.488-188.245 302.507-20.48 97.451-5.973 198.144 27.904 317.227 30.278 39.416 62.496 74.299 97.589 106.067l0.673 0.6c5.405 5.23 12.779 8.453 20.907 8.453s15.502-3.223 20.915-8.461l-0.008 0.008zM296.405 638.848c-65.408 24.491-146.773 35.584-253.867 35.584-0.013 0-0.028 0-0.043 0-16.613 0-30.080-13.467-30.080-30.080v0c0-392.875 131.243-556.501 463.445-570.795-103.125 107.307-160 209.749-182.357 316.16-17.323 82.432-13.227 164.523 2.901 249.131z" />
<glyph unicode="&#xe959;" glyph-name="On-site-Gym" d="M85.344 640h-42.688c-23.551-0.018-42.638-19.105-42.656-42.654v-298.69c0-23.558 19.098-42.656 42.656-42.656v0h42.688c0 0 0 0 0 0 11.77 0 21.312 9.542 21.312 21.312 0 0.011 0 0.022 0 0.034v-0.002 341.312c0 0 0 0 0 0 0 11.777-9.538 21.326-21.31 21.344h-0.002zM298.656 725.344h-106.656c-23.558 0-42.656-19.098-42.656-42.656 0-0.011 0-0.023 0-0.034v0.002-469.312c0-0.009 0-0.021 0-0.032 0-23.558 19.098-42.656 42.656-42.656h106.656c11.788 0 21.344 9.556 21.344 21.344v0 512c0 11.788-9.556 21.344-21.344 21.344v0zM981.344 640h-42.688c0 0 0 0 0 0-11.77 0-21.312-9.542-21.312-21.312 0-0.011 0-0.022 0-0.034v0.002-341.312c0 0 0 0 0 0 0-11.777 9.538-21.326 21.31-21.344h42.69c23.558 0 42.656 19.098 42.656 42.656v0 298.688c0 23.558-19.098 42.656-42.656 42.656v0zM832 725.344h-106.656c-11.788 0-21.344-9.556-21.344-21.344v0-512c0-0.010 0-0.021 0-0.032 0-11.77 9.542-21.312 21.312-21.312 0.011 0 0.023 0 0.034 0h106.654c23.558 0 42.656 19.098 42.656 42.656 0 0.011 0 0.023 0 0.034v-0.002 469.312c0 0.009 0 0.021 0 0.032 0 23.558-19.098 42.656-42.656 42.656v0zM640 512h-256c-11.788 0-21.344-9.556-21.344-21.344v0-85.312c0-11.808 9.568-21.344 21.344-21.344h256c11.788 0 21.344 9.556 21.344 21.344v0 85.312c0 11.788-9.556 21.344-21.344 21.344v0z" />
<glyph unicode="&#xe95a;" glyph-name="On-site-schooling-options" d="M90.016-2.144c-4.185-6.487-6.672-14.411-6.672-22.915 0-23.576 19.112-42.688 42.688-42.688 18.173 0 33.694 11.356 39.853 27.359l0.099 0.292 108.8 216.736c0.822 1.478 1.306 3.243 1.306 5.12s-0.484 3.642-1.334 5.175l0.028-0.055c-1.9 3.104-5.271 5.143-9.119 5.143-0.248 0-0.494-0.008-0.738-0.025l0.033 0.002h-71.264c-0.064 0.001-0.139 0.002-0.214 0.002-4.186 0-7.807-2.413-9.55-5.924l-0.028-0.062-93.888-188.16zM305.92 234.656c1.808 0.193 3.231 1.616 3.423 3.407l0.001 0.017c0.854 24.622 9.894 46.98 24.464 64.596l-0.144-0.18c0.97 1.652 1.543 3.639 1.543 5.76s-0.573 4.108-1.573 5.814l0.029-0.054c-1.535 3.183-4.518 5.457-8.070 5.977l-0.058 0.007h-165.536c-5.885 0-10.656 4.771-10.656 10.656v0 394.688c0.018 11.763 9.549 21.294 21.31 21.312h597.346c0 0 0 0 0 0 11.777 0 21.326-9.538 21.344-21.31v-304.226c0.063-4.678 3.018-8.65 7.156-10.215l0.076-0.025 64-22.624c1.349-0.792 2.972-1.26 4.704-1.26s3.355 0.468 4.748 1.284l-0.044-0.024c2.811 1.848 4.648 4.979 4.672 8.54v328.548c-0.018 58.897-47.759 106.638-106.654 106.656h-245.346c-5.885 0-10.656 4.771-10.656 10.656v0 74.688c-0.652 23.068-19.507 41.519-42.672 41.519s-42.020-18.452-42.671-41.459l-0.001-0.060v-74.688c0-5.885-4.771-10.656-10.656-10.656v0h-245.344c-58.904 0-106.656-47.752-106.656-106.656v0-394.688c0-5.885-4.771-10.656-10.656-10.656h-10.688c-23.068-0.652-41.519-19.507-41.519-42.672s18.452-42.020 41.459-42.671l0.060-0.001h263.264zM896 103.264c0.004 0.102 0.006 0.222 0.006 0.342 0 3.601-1.859 6.768-4.67 8.594l-0.040 0.024c-1.458 0.904-3.226 1.44-5.12 1.44s-3.662-0.536-5.162-1.464l0.042 0.024-151.872-64.864c-7.415-3.335-16.072-5.278-25.184-5.278s-17.769 1.943-25.582 5.437l0.398-0.159-151.872 64.864c-1.458 0.904-3.226 1.44-5.12 1.44s-3.662-0.536-5.162-1.464l0.042 0.024c-2.851-1.85-4.71-5.017-4.71-8.618 0-0.12 0.002-0.24 0.006-0.359v0.017-62.304c0-0.045 0-0.098 0-0.151 0-22.556 13.999-41.841 33.783-49.643l0.362-0.126 136.512-50.784c5.743-2.421 12.419-3.828 19.424-3.828s13.681 1.407 19.762 3.953l138.734 51.523c20.535 7.336 35.039 26.453 35.423 49.010l0.001 0.046v62.304zM1009.92 254.72l-298.656 106.656c-2.161 0.808-4.658 1.276-7.264 1.276s-5.103-0.468-7.411-1.324l0.147 0.048-298.656-106.656c-8.266-2.923-14.082-10.671-14.082-19.777 0-0.101 0.001-0.202 0.002-0.303v0.015-182.176c0-17.673 14.327-32 32-32s32 14.327 32 32v0 139.52l247.456-106.24c2.53-1.039 5.466-1.643 8.544-1.643s6.014 0.603 8.698 1.698l-0.154-0.056 298.656 128c8.623 2.873 14.73 10.87 14.73 20.293 0 9.892-6.73 18.213-15.861 20.633l-0.149 0.034z" />
<glyph unicode="&#xe95b;" glyph-name="phone" d="M282.453 499.627c61.44-120.747 160.427-219.307 281.173-281.173l93.867 93.867c11.52 11.52 28.587 15.36 43.52 10.24 47.787-15.787 99.413-24.32 152.32-24.32 23.467 0 42.667-19.2 42.667-42.667v-148.907c0-23.467-19.2-42.667-42.667-42.667-400.64 0-725.333 324.693-725.333 725.333 0 23.467 19.2 42.667 42.667 42.667h149.333c23.467 0 42.667-19.2 42.667-42.667 0-53.333 8.533-104.533 24.32-152.32 4.693-14.933 1.28-31.573-10.667-43.52l-93.867-93.867z" />
<glyph unicode="&#xe95c;" glyph-name="Photo-2" d="M769.707 578.304c24.766 0 44.843 20.077 44.843 44.843s-20.077 44.843-44.843 44.843v0c-24.766 0-44.843-20.077-44.843-44.843s20.077-44.843 44.843-44.843v0z" />
<glyph unicode="&#xe95d;" glyph-name="Photo" d="M769.678 578.318c24.766 0 44.843 20.077 44.843 44.843s-20.077 44.843-44.843 44.843v0c-24.766 0-44.843-20.077-44.843-44.843s20.077-44.843 44.843-44.843v0z" />
<glyph unicode="&#xe95e;" glyph-name="Physical-health" d="M616.096 722.784c0.009 0 0.021 0 0.032 0 65.514 0 118.624 53.11 118.624 118.624s-53.11 118.624-118.624 118.624c-65.514 0-118.624-53.11-118.624-118.624 0-0.011 0-0.022 0-0.034v0.002c0-0.114-0.001-0.249-0.001-0.385 0-65.284 52.924-118.208 118.208-118.208 0.135 0 0.271 0 0.406 0.001h-0.021zM875.52 817.504c-1.176 0.084-2.547 0.131-3.93 0.131-31.371 0-57.013-24.535-58.782-55.463l-0.007-0.157s-8.544-100.672-78.080-113.92c-57.28-3.072-114.56 5.952-168.096 26.464-51.148 20.491-110.438 32.376-172.504 32.376-18.594 0-36.939-1.067-54.977-3.142l2.201 0.206c-90.754-18.090-161.109-88.446-178.959-177.754l-0.241-1.446c-0.558-3.044-0.877-6.547-0.877-10.125 0-29.213 21.274-53.456 49.174-58.084l0.343-0.047h9.792c0.101-0.001 0.221-0.001 0.34-0.001 29.197 0 53.43 21.251 58.076 49.129l0.047 0.344c10.287 41.45 43.245 73.123 84.647 81.388l0.697 0.116c8.937 1.074 19.287 1.687 29.779 1.687 28.996 0 56.9-4.68 82.996-13.325l-1.863 0.535-69.536-179.2c-0.055-0.889-0.086-1.929-0.086-2.976s0.031-2.087 0.093-3.118l-0.007 0.142-34.56-125.44c-15.36-75.968-42.656-90.048-156.16-121.184l-78.496-20.896c-25.239-7.197-43.408-30.053-43.408-57.152 0-32.715 26.48-59.246 59.176-59.328h0.008c5.088-0.832 10.272-0.832 15.36 0l76.384 20.896c108.352 29.44 210.336 57.184 240.192 208.224l10.24 36.672c40.647-47.61 65.378-109.877 65.378-177.92 0-29.719-4.718-58.336-13.446-85.143l0.547 1.944c-1.948-5.619-3.072-12.095-3.072-18.834 0-32.731 26.533-59.264 59.264-59.264 13.070 0 25.153 4.231 34.952 11.399l-0.167-0.117c10.112 7.264 17.664 17.504 21.664 29.28 12.541 36.303 19.783 78.138 19.783 121.665 0 121.476-56.406 229.778-144.456 300.143l-0.768 0.593 58.048 145.504c32.968-10.76 70.907-16.964 110.295-16.964 20.407 0 40.426 1.665 59.927 4.868l-2.126-0.288c125.44 27.744 166.4 152.736 170.656 222.304 0.198 1.817 0.31 3.925 0.31 6.059 0 31.513-24.569 57.287-55.597 59.213l-0.169 0.008z" />
<glyph unicode="&#xe95f;" glyph-name="Pinterest" d="M512 960c-282.795 0-512-229.205-512-512 0-217.003 134.997-402.219 325.419-476.8-4.437 40.619-8.619 102.613 1.792 146.773 9.387 40.021 59.989 254.421 59.989 254.421s-15.36 30.592-15.36 75.989c0 71.253 41.173 124.416 92.587 124.416 43.563 0 64.768-32.811 64.768-72.192 0-43.989-27.989-109.611-42.411-170.411-11.947-50.987 25.6-92.587 75.819-92.587 91.008 0 160.981 96 160.981 234.411 0 122.581-87.979 208.384-213.76 208.384-145.621 0-231.253-109.227-231.253-222.208 0-43.989 17.067-91.179 38.229-116.779 2.574-2.734 4.155-6.427 4.155-10.49 0-1.476-0.209-2.903-0.598-4.253l0.027 0.108c-3.797-16.213-12.587-50.987-14.165-57.984-2.219-9.387-7.424-11.392-17.237-6.827-64 29.867-103.979 123.221-103.979 198.4 0 161.621 117.419 309.845 338.176 309.845 177.621 0 315.605-126.635 315.605-295.808 0-176.427-111.189-318.421-265.6-318.421-51.797 0-100.565 27.008-117.376 58.795 0 0-25.6-97.792-31.787-121.771-11.605-44.373-42.837-100.224-63.616-134.229 48-14.763 98.816-22.784 151.595-22.784 282.795 0 512 229.205 512 512s-229.205 512-512 512z" />
<glyph unicode="&#xe960;" glyph-name="Play" d="M426.667 256l256 192-256 192v-384zM512 874.667c-235.52 0-426.667-191.147-426.667-426.667s191.147-426.667 426.667-426.667 426.667 191.147 426.667 426.667-191.147 426.667-426.667 426.667zM512 106.667c-188.16 0-341.333 153.173-341.333 341.333s153.173 341.333 341.333 341.333 341.333-153.173 341.333-341.333-153.173-341.333-341.333-341.333z" />
<glyph unicode="&#xe961;" glyph-name="Plus-Size24" d="M853.333 469.333v-42.667h-682.667v42.667zM490.667 789.333h42.667v-682.667h-42.667z" />
<glyph unicode="&#xe962;" glyph-name="Plus-Size32" d="M843 457.061v-41.363h-661.969v41.363zM491.303 767.364h41.363v-661.969h-41.363z" />
<glyph unicode="&#xe963;" glyph-name="Podcast" d="M542.421 340.48v-251.605c0-15.189-13.611-27.52-30.421-27.52s-30.421 12.331-30.421 27.52v251.605c-59.307 13.867-98.048 65.493-90.283 120.491 7.68 54.997 59.435 96.213 120.704 96.213s112.981-41.216 120.704-96.213c7.765-55.040-30.976-106.624-90.283-120.491zM299.051 446.72c-0.043 46.165 18.261 90.795 51.584 125.824 33.28 34.987 79.445 58.027 129.963 64.811 9.454 1.369 20.37 2.15 31.469 2.15 41.801 0 81.013-11.087 114.856-30.48l-1.13 0.597c43.179-24.619 75.093-62.507 89.941-106.709 5.845-16.751 9.221-36.060 9.221-56.158 0-28.345-6.715-55.121-18.641-78.825l0.46 1.009c-20.651-42.24-57.387-76.416-103.509-96.213v-59.392c81.835 26.197 145.152 85.931 170.581 161.024 25.387 75.093 9.941 156.672-41.728 219.819-51.627 63.147-133.291 100.395-220.117 100.395s-168.533-37.291-220.117-100.395c-51.627-63.147-67.115-144.725-41.728-219.819 25.472-75.093 88.747-134.827 170.581-161.024v59.435c-36.305 15.544-66.308 39.886-88.237 70.419l-0.424 0.621c-20.486 28.632-32.827 64.311-33.024 102.864v0.048zM512 832c-141.44 0.213-273.792-63.104-353.195-168.96-79.36-105.899-95.573-240.555-43.051-359.381 52.48-118.784 166.784-206.293 304.981-233.515v56.747c-115.755 27.008-209.493 103.552-251.051 204.928-41.557 101.333-25.6 214.699 42.581 303.445 68.267 88.789 180.267 141.696 299.733 141.696s231.467-52.907 299.733-141.653c68.224-88.747 84.139-202.112 42.581-303.445-41.557-101.376-135.296-177.92-251.051-204.971v-56.704c138.24 27.221 252.501 114.731 304.981 233.515 52.48 118.827 36.352 253.483-43.093 359.339-79.317 105.856-211.669 169.173-353.152 168.96z" />
<glyph unicode="&#xe964;" glyph-name="Refined-Logo-Arrow" d="M1022.945 606.177l1.014 0.543 0.041-78.664c-71.117-39.905-149.33-83.425-218.522-120.422-78.438-41.943-149.197-77.681-183.695-88.433-31.805-9.933-58.604-15.002-77.722-17.613-5.924-0.893-13.71-1.73-21.571-2.294l-1.070-0.062c-2.452-0.174-5.553-0.314-8.671-0.385l-0.237-0.004h-0.901c-0.972 0.005-1.921 0.027-2.866 0.067l0.152-0.005c-2.627 0.097-4.861 0.218-7.085 0.375l0.654-0.037c-8.931 0.625-16.716 1.463-24.417 2.563l1.776-0.208c-19.118 2.601-45.916 7.68-77.722 17.603-34.509 10.752-105.247 46.49-183.695 88.433-69.151 36.966-147.323 80.466-218.409 120.361v78.684s0.625-0.328 0.932-0.512c79.186-44.524 170.598-95.662 249.836-138.035 80.722-43.162 144.896-75.059 171.766-83.425 27.73-8.653 50.739-12.974 66.56-15.124 7.895-1.075 13.988-1.608 17.94-1.874 1.264-0.095 2.973-0.183 4.689-0.24l0.226-0.006c0.154 0 0.358 0 0.625 0.020 0.87 0.031 2.304 0.092 4.28 0.225 3.953 0.266 10.035 0.799 17.94 1.874 15.821 2.15 38.84 6.472 66.56 15.124 26.86 8.376 91.034 40.264 171.766 83.436 79.227 42.363 170.65 93.491 249.825 138.035z" />
<glyph unicode="&#xe965;" glyph-name="Relapse" d="M508.576 21.344c187.092 1.87 338.039 153.971 338.039 341.328s-150.947 339.459-337.862 341.327l-0.177 0.001c-0.004 0-0.009 0-0.015 0-5.655 0-10.24-4.585-10.24-10.24 0-2.839 1.156-5.409 3.022-7.263l80.193-80.193c7.781-7.744 12.596-18.462 12.596-30.304s-4.815-22.56-12.594-30.302l-0.002-0.002c-7.719-7.636-18.339-12.353-30.060-12.353-0.075 0-0.149 0-0.223 0.001h0.011c-0.076 0-0.167-0.001-0.257-0.001-11.717 0-22.333 4.717-30.051 12.356l-170.652 170.684c-7.795 7.732-12.62 18.446-12.62 30.288s4.825 22.556 12.617 30.285l170.659 170.659c7.751 7.751 18.46 12.546 30.288 12.546 23.656 0 42.834-19.177 42.834-42.834 0-11.828-4.794-22.537-12.546-30.288l-80.192-80.224c-1.848-1.852-2.99-4.409-2.99-7.232 0-5.649 4.575-10.23 10.222-10.24h0.001c235.644 0 426.672-191.028 426.672-426.672s-191.028-426.672-426.672-426.672v0c-23.068 0.652-41.519 19.507-41.519 42.672s18.452 42.020 41.459 42.671l0.060 0.001zM302.944 90.016c22.816-17.056 47.616-31.36 73.792-42.656 15.411-6.659 26.001-21.728 26.001-39.27 0-6.008-1.242-11.725-3.483-16.91l0.106 0.276c-6.599-15.593-21.772-26.335-39.453-26.335-5.938 0-11.592 1.211-16.73 3.4l0.279-0.106c-35.012 14.939-65.198 32.675-92.751 53.688l1.039-0.76c-10.48 7.854-17.189 20.245-17.189 34.203 0 23.541 19.083 42.624 42.624 42.624 3.812 0 7.507-0.5 11.023-1.439l-0.298 0.068c5.44-1.376 10.56-3.84 15.040-7.2v0.416zM123.296 331.52c2.423 0.488 5.208 0.768 8.058 0.768 20.66 0 37.889-14.688 41.816-34.191l0.046-0.273c5.856-29.6 15.616-58.304 29.024-85.344 2.48-5.251 3.927-11.406 3.927-17.899 0-23.611-19.141-42.752-42.752-42.752-16.438 0-30.709 9.277-37.863 22.881l-0.112 0.234c-15.445 30.752-27.842 66.447-35.377 103.902l-0.463 2.754c-0.488 2.423-0.768 5.208-0.768 8.058 0 20.66 14.688 37.889 34.191 41.816l0.273 0.046zM124.16 402.336c-19.253 4.401-33.401 21.381-33.401 41.666 0 3.231 0.359 6.378 1.039 9.403l-0.054-0.285c8.16 38.4 21.664 75.424 40.096 110.080 6.877 14.879 21.674 25.017 38.838 25.017 23.558 0 42.656-19.098 42.656-42.656 0-8.315-2.379-16.075-6.494-22.635l0.104 0.178c-13.54-25.315-24.561-54.659-31.549-85.533l-0.451-2.371c-4.221-19.466-21.3-33.835-41.734-33.835-3.206 0-6.33 0.354-9.334 1.024l0.284-0.053z" />
<glyph unicode="&#xe966;" glyph-name="Search-Size24" d="M867.82 172.093l-222.29 222.249c34.202 44.892 53.412 102.605 53.412 164.577 0 0.17 0.001 0.372 0.001 0.574 0 153.103-124.114 277.217-277.217 277.217-0.187 0-0.375 0-0.562-0.001h0.029c-0.158 0-0.346 0.001-0.533 0.001-153.148 0-277.299-124.151-277.299-277.299 0-0.188 0-0.375 0.001-0.562v0.029c0-0.171-0.001-0.372-0.001-0.574 0-153.103 124.114-277.217 277.217-277.217 0.202 0 0.404 0 0.606 0.001h-0.032c0.444-0.003 0.969-0.004 1.494-0.004 61.356 0 118.030 20.045 163.831 53.945l-0.748-0.529 222.249-222.29c8.52-8.52 19.251-12.82 29.901-12.82 10.732 0 21.381 4.301 29.983 12.82 7.895 7.547 12.802 18.162 12.802 29.922 0 11.781-4.924 22.411-12.827 29.946l-0.017 0.016zM421.192 366.49c-0.232-0.001-0.506-0.002-0.78-0.002-105.779 0-191.529 85.75-191.529 191.529 0 0.289 0.001 0.577 0.002 0.866v-0.045c-0.001 0.232-0.002 0.506-0.002 0.78 0 105.779 85.75 191.529 191.529 191.529 0.274 0 0.548-0.001 0.822-0.002h-0.042c0.244 0.001 0.532 0.002 0.821 0.002 105.779 0 191.529-85.75 191.529-191.529 0-0.274-0.001-0.549-0.002-0.823v0.043c0.001-0.232 0.002-0.506 0.002-0.78 0-105.801-85.769-191.57-191.57-191.57-0.274 0-0.548 0.001-0.822 0.002h0.043z" />
<glyph unicode="&#xe967;" glyph-name="Search-Size32" d="M882.624 139.68l-231.488 231.52c35.616 46.752 55.648 106.88 55.648 171.424 0 0.181 0.001 0.395 0.001 0.609 0 159.482-129.286 288.768-288.768 288.768-0.214 0-0.428 0-0.641-0.001h0.033c-0.162 0-0.353 0.001-0.545 0.001-159.535 0-288.864-129.329-288.864-288.864 0-0.191 0-0.383 0.001-0.574v0.030c0-0.181-0.001-0.395-0.001-0.609 0-159.482 129.286-288.768 288.768-288.768 0.214 0 0.428 0 0.641 0.001h-0.033c0.453-0.003 0.988-0.004 1.525-0.004 63.921 0 122.964 20.885 170.678 56.203l-0.779-0.551 231.52-231.52c8.896-8.896 20.032-13.376 31.168-13.376s22.24 4.48 31.168 13.376c8.228 7.859 13.344 18.916 13.344 31.168s-5.116 23.309-13.327 31.152l-0.017 0.016zM417.408 342.24c-0.248-0.001-0.541-0.002-0.834-0.002-110.174 0-199.488 89.314-199.488 199.488 0 0.293 0.001 0.586 0.002 0.879v-0.045c-0.001 0.267-0.002 0.582-0.002 0.898 0 110.174 89.314 199.488 199.488 199.488 0.293 0 0.586-0.001 0.879-0.002h-0.045c0.248 0.001 0.541 0.002 0.834 0.002 110.174 0 199.488-89.314 199.488-199.488 0-0.304-0.001-0.609-0.002-0.913v0.047c0.001-0.229 0.001-0.499 0.001-0.769 0-110.21-89.342-199.552-199.552-199.552-0.271 0-0.541 0.001-0.811 0.002h0.042z" />
<glyph unicode="&#xe968;" glyph-name="Spiritual-Care-Services" d="M773.536 770.144c-25.453 49.583-76.237 82.921-134.807 82.921-41.435 0-78.972-16.684-106.262-43.701l0.013 0.012-20.48-20.032-20.48 20.48c-27.276 26.998-64.809 43.678-106.238 43.678-58.579 0-109.368-33.347-134.421-82.094l-0.396-0.849c-10.019-19.553-15.89-42.658-15.89-67.134 0-41.448 16.838-78.963 44.046-106.078l0.004-0.004 218.016-227.84c3.935-3.922 9.364-6.347 15.36-6.347s11.425 2.425 15.361 6.347l-0.001-0.001 218.016 227.392c27.113 27.233 43.874 64.791 43.874 106.264 0 24.406-5.805 47.457-16.109 67.846l0.395-0.862zM804.256 153.6c-3.277 1.86-5.452 5.325-5.452 9.299 0 0.937 0.121 1.846 0.348 2.712l-0.017-0.074 20.928 91.744c14.496 61.44-42.688 85.344-72.128 40.096-24.166-45.978-46.346-99.986-63.498-156.187l-1.782-6.789c-0.312-1.861-0.49-4.006-0.49-6.192s0.178-4.331 0.521-6.42l-0.031 0.228v-175.36c0 0 0 0 0 0 0-5.885 4.771-10.656 10.656-10.656 0.011 0 0.022 0 0.034 0h149.31c0.009 0 0.021 0 0.032 0 5.885 0 10.656 4.771 10.656 10.656 0 0 0 0 0 0v0 45.664c-0.001 0.087-0.002 0.191-0.002 0.294 0 5.913 2.453 11.254 6.396 15.060l0.006 0.006 151.872 150.624c7.654 7.703 12.385 18.319 12.385 30.040 0 0.082 0 0.163-0.001 0.245v-0.013 304.64c-0.032 7.171-3.528 13.519-8.899 17.461l-0.061 0.043c-3.412 2.423-7.662 3.873-12.251 3.873-2.644 0-5.176-0.481-7.512-1.362l0.147 0.049c-30.72-10.656-76.8-59.296-78.080-248.736-0.039-5.868-2.483-11.157-6.394-14.938l-93.894-93.862c-2.009-2.035-4.798-3.296-7.882-3.296-1.792 0-3.484 0.426-4.981 1.181l0.063-0.029zM164.704 7.68c3.649-3.908 5.905-9.158 5.952-14.935v-46.089c0 0 0 0 0 0 0-5.885 4.771-10.656 10.656-10.656 0.011 0 0.022 0 0.034 0h149.31c0.009 0 0.021 0 0.032 0 5.885 0 10.656 4.771 10.656 10.656 0 0 0 0 0 0v0 175.36c0.64 4.096 0.64 8.288 0 12.384-18.334 62.985-39.967 117.039-66.097 168.421l2.513-5.445c-30.72 47.36-85.344 21.344-72.096-40.096l20.896-91.744c0.211-0.792 0.332-1.7 0.332-2.637 0-3.973-2.175-7.439-5.399-9.271l-0.053-0.028c-1.781-1.27-4.002-2.030-6.4-2.030s-4.619 0.76-6.434 2.053l0.034-0.023-93.856 93.856c-3.92 3.785-6.365 9.075-6.4 14.938v0.006c0 189.44-46.944 238.080-78.080 248.736-2.194 0.834-4.731 1.317-7.381 1.317-4.595 0-8.85-1.452-12.333-3.922l0.066 0.045c-5.424-3.978-8.917-10.313-8.96-17.465v-299.111c-0.001-0.098-0.001-0.214-0.001-0.33 0-12.549 5.419-23.833 14.045-31.638l0.037-0.033c42.24-41.376 126.304-128.416 148.928-152.32z" />
<glyph unicode="&#xe969;" glyph-name="star" d="M512 152.576l316.416-190.976-83.968 359.936 279.552 242.176-368.128 31.232-143.872 339.456-143.872-339.456-368.128-31.232 279.552-242.176-83.968-359.936 316.416 190.976z" />
<glyph unicode="&#xe96a;" glyph-name="Substance-Type" d="M933.984 869.984c-55.725 55.609-132.647 89.996-217.6 89.996s-161.875-34.387-217.605-90.001l0.005 0.005-408.32-408.768c-56.068-55.67-90.773-132.791-90.773-218.017 0-169.662 137.538-307.2 307.2-307.2 0.255 0 0.51 0 0.765 0.001h-0.040c0.482-0.003 1.053-0.004 1.624-0.004 84.37 0 160.741 34.247 215.97 89.599l408.774 408.742c55.6 55.148 90.020 131.576 90.020 216.043 0 0.547-0.001 1.095-0.004 1.641v-0.084c0.002 0.441 0.004 0.963 0.004 1.486 0 84.63-34.412 161.224-90.007 216.55l-0.012 0.012zM873.824 494.944l-159.168-158.72c-3.867-3.889-9.22-6.295-15.136-6.295s-11.269 2.407-15.135 6.294l-0.001 0.001-284.16 282.432c-3.8 3.913-6.142 9.259-6.142 15.152s2.343 11.239 6.147 15.157l-0.005-0.005 159.136 158.72c40.239 40.239 95.829 65.128 157.232 65.128 122.806 0 222.36-99.554 222.36-222.36 0-61.403-24.888-116.993-65.128-157.232v0 1.728zM709.536 825.184c-48.444-0.009-92.319-19.565-124.169-51.209l0.009 0.009c-5.789-5.791-9.369-13.789-9.369-22.624s3.58-16.833 9.369-22.624v0c5.739-5.899 13.754-9.559 22.624-9.559s16.885 3.66 22.617 9.552l0.007 0.007c20.565 19.378 48.356 31.287 78.928 31.287s58.363-11.909 78.986-31.341l-0.058 0.054c5.728-5.791 13.674-9.376 22.458-9.376 0.058 0 0.116 0 0.175 0h-0.009c0.199-0.005 0.433-0.007 0.668-0.007 8.618 0 16.395 3.597 21.913 9.372l0.011 0.012c5.899 5.739 9.559 13.754 9.559 22.624s-3.66 16.885-9.552 22.617l-0.007 0.007c-31.655 31.635-75.375 51.201-123.665 51.201-0.174 0-0.348 0-0.522-0.001h0.027z" />
<glyph unicode="&#xe96b;" glyph-name="Thought-Property-124" d="M363.349-5.547c36.075-36.091 85.912-58.423 140.965-58.453h0.006c110.043 0.121 199.217 89.296 199.339 199.327v72.759c-42.965-21.077-114.048-43.648-202.112-43.648-85.035 0-153.685 21.077-196.565 41.685v-70.784c0.059-55.027 22.386-104.827 58.453-140.885v0zM267.093 360.107l-7.936 14.293c-39.381 70.955-88.491 159.488-88.491 251.989-0.027 1.587-0.043 3.46-0.043 5.336 0 184.272 149.382 333.653 333.653 333.653s333.653-149.382 333.653-333.653c0-1.876-0.015-3.749-0.046-5.617l0.004 0.282c0-92.544-48.939-180.779-88.32-251.691l-0.171-0.299-9.6-17.323-67.84-44.587c-15.019-10.496-78.549-41.387-170.453-41.387-91.776 0-153.685 30.805-167.851 40.96l-66.56 48.043z" />
<glyph unicode="&#xe96f;" glyph-name="Twitter" d="M322.133 32c386.347 0 597.675 320.128 597.675 597.675 0 9.003-0.171 18.219-0.597 27.221 41.27 30.069 76.042 66.104 103.827 107.246l0.962 1.512c-38.315-17.067-78.933-28.16-120.576-33.024 43.404 26.335 76.048 66.697 91.945 114.689l0.428 1.492c-38.396-23.144-83.076-40.815-130.663-50.484l-2.713-0.46c-38.457 40.817-92.871 66.232-153.221 66.232-116.171 0-210.347-94.175-210.347-210.347 0-16.831 1.977-33.201 5.711-48.889l-0.287 1.43c-174.932 9.043-328.812 92.119-432.056 218.248l-0.84 1.059c-17.837-30.25-28.375-66.649-28.375-105.509 0-72.553 36.732-136.527 92.615-174.338l0.742-0.473c-35.087 1.153-67.7 10.724-96.203 26.743l1.057-0.546v-2.56c0-0.050 0-0.109 0-0.168 0-101.305 71.731-185.856 167.173-205.634l1.36-0.236c-16.511-4.694-35.473-7.393-55.065-7.393-14.043 0-27.762 1.387-41.028 4.030l1.33-0.221c27.644-84.104 104.64-144.107 195.917-146.002l0.221-0.004c-70.908-56.101-161.626-89.994-260.261-89.994-17.927 0-35.593 1.12-52.932 3.293l2.067-0.211c90.993-59.184 202.317-94.379 321.86-94.379 0.096 0 0.192 0 0.287 0h-0.015z" />
<glyph unicode="&#xe970;" glyph-name="User" d="M669.653 450.219c73.848 50.957 121.639 135.092 121.685 230.393v0.007c-0.17 154.215-125.127 279.187-279.32 279.381h-0.019c-154.196-0.194-279.145-125.142-279.339-279.32v-0.019c0.047-95.32 47.837-179.468 120.752-229.833l0.934-0.61c-204.117-57.728-354.347-245.205-354.347-467.584 0-25.685 20.821-46.507 46.507-46.507h930.987c25.685 0 46.507 20.822 46.507 46.507v0c0 222.379-150.187 409.856-354.347 467.584zM512 866.901c102.832-0.121 186.161-83.45 186.283-186.271v-0.012c-0.121-102.832-83.45-186.161-186.271-186.283h-0.012c-102.832 0.121-186.161 83.45-186.283 186.271v0.012c0.097 102.842 83.441 186.186 186.273 186.283h0.009z" />
<glyph unicode="&#xe971;" glyph-name="Wellness-activities-2" d="M512.864 704c70.692 0 128 57.308 128 128s-57.308 128-128 128v0c-70.692 0-128-57.308-128-128s57.308-128 128-128v0zM1000.96 544.864c-11.008 9.209-25.317 14.801-40.933 14.801-19.668 0-37.263-8.872-49.004-22.832l-0.080-0.098c-100.288-122.88-147.2 68.704-309.76 106.688-26.763 7.196-57.491 11.33-89.184 11.33s-62.42-4.134-91.672-11.891l2.488 0.561c-164.672-48.224-209.472-225.28-309.76-106.688-11.838 14.802-29.897 24.201-50.151 24.201-35.382 0-64.064-28.682-64.064-64.064 0-16.325 6.106-31.225 16.16-42.538l-0.057 0.065c42.656-53.76 198.816-143.36 330.24-20.48 1.917 1.839 4.524 2.972 7.396 2.972 1.489 0 2.906-0.304 4.194-0.854l-0.070 0.026c3.8-1.695 6.4-5.439 6.4-9.79 0-0.012 0-0.024 0-0.036v0.002-191.584c0.211-9.221 6.126-17.008 14.345-19.984l0.151-0.048 119.904-42.688c9.12-2.976 19.008-2.976 28.16 0l120.32 42.688c8.276 3.048 14.073 10.862 14.080 20.031v191.585c0 0.016 0 0.036 0 0.055 0 4.346 2.602 8.084 6.332 9.742l0.068 0.027c1.218 0.523 2.636 0.828 4.124 0.828 2.872 0 5.479-1.133 7.399-2.975l-0.004 0.004c131.84-122.88 285.44-33.28 330.24 20.896 9.546 11.054 15.36 25.563 15.36 41.429 0 19.464-8.75 36.884-22.531 48.542l-0.093 0.077zM762.464 208.64l-157.888-55.904c-4.149-1.436-7.1-5.253-7.232-9.777v-0.015c0.073-4.675 3.024-8.643 7.156-10.215l0.076-0.025 91.328-32c14.688-5.376 28.064-13.792 39.232-24.768 4.034-3.805 9.487-6.143 15.486-6.143 2.4 0 4.712 0.374 6.881 1.067l-0.16-0.044 47.776 17.088c25.087 9.051 42.697 32.653 42.697 60.368 0 35.36-28.665 64.025-64.025 64.025-7.645 0-14.977-1.34-21.774-3.798l0.446 0.141zM682.656 60.16l-421.12 148.48c-6.337 2.304-13.651 3.637-21.277 3.637-35.382 0-64.064-28.682-64.064-64.064 0-10.022 2.301-19.506 6.404-27.953l-0.167 0.381c7.422-15.267 20.282-26.921 36.002-32.595l0.446-0.141 421.12-148.064c6.688-2.528 13.76-3.84 20.896-3.84 35.137 0.275 63.514 28.823 63.514 63.998 0 27.514-17.362 50.972-41.727 60.018l-0.443 0.144h0.416z" />
<glyph unicode="&#xe972;" glyph-name="Wellness-activities" d="M512 338.277c60.598 0 109.723 49.125 109.723 109.723s-49.125 109.723-109.723 109.723v0c-60.598 0-109.723-49.125-109.723-109.723s49.125-109.723 109.723-109.723v0zM512-27.415c-30.121 0.413-54.431 24.712-54.861 54.79v91.487c0 30.299 24.562 54.862 54.862 54.862s54.862-24.562 54.862-54.862v-91.446c-0.448-30.105-24.752-54.387-54.822-54.799h-0.039zM814.825 90.345c-0.085 0-0.185-0.001-0.286-0.001-15.059 0-28.682 6.147-38.497 16.070l-73.143 73.143c-10.693 10.036-17.354 24.259-17.354 40.037 0 30.299 24.562 54.862 54.862 54.862 15.779 0 30.002-6.661 40.010-17.325l0.027-0.029 73.138-73.138c9.906-9.924 16.032-23.625 16.032-38.757 0-30.285-24.539-54.838-54.818-54.862h-0.002zM932.585 393.138h-91.446c-30.299 0-54.862 24.562-54.862 54.862s24.562 54.862 54.862 54.862h91.446c30.299 0 54.862-24.562 54.862-54.862s-24.562-54.862-54.862-54.862v0zM744.603 625.742c-15.093 0.327-28.709 6.392-38.807 16.092l0.019-0.019c-9.916 9.926-16.048 23.633-16.048 38.772s6.132 28.846 16.048 38.773l73.168 73.137c10.063 10.945 24.449 17.779 40.431 17.779 30.299 0 54.862-24.562 54.862-54.862 0-15.982-6.834-30.368-17.74-40.395l-0.039-0.036-73.138-73.169c-10.005-9.802-23.668-15.904-38.755-16.073h-0.033zM512 722.308c-30.128 0.396-54.448 24.706-54.861 54.791v91.485c0 30.299 24.562 54.862 54.862 54.862s54.862-24.562 54.862-54.862v-91.446c-0.414-30.125-24.734-54.434-54.824-54.83h-0.038zM279.397 625.742c-15.109 0.178-28.759 6.279-38.766 16.083l0.010-0.009-73.138 73.169c-8.6 9.643-13.856 22.431-13.856 36.446 0 30.299 24.562 54.862 54.862 54.862 15.466 0 29.438-6.4 39.411-16.696l0.014-0.015 73.138-73.138c9.916-9.926 16.048-23.633 16.048-38.772s-6.132-28.846-16.048-38.773l0.001 0.001c-9.937-8.308-22.85-13.353-36.943-13.353-1.676 0-3.336 0.071-4.976 0.211l0.214-0.015zM182.862 393.138h-91.446c-30.299 0-54.862 24.562-54.862 54.862s24.562 54.862 54.862 54.862h91.446c30.299 0 54.862-24.562 54.862-54.862s-24.562-54.862-54.862-54.862v0zM209.175 90.345c-0.076 0-0.165-0.001-0.255-0.001-15.059 0-28.682 6.147-38.497 16.069l-0.005 0.005c-9.916 9.926-16.048 23.633-16.048 38.772s6.132 28.846 16.048 38.773l73.137 73.137c10.077 11.039 24.528 17.938 40.59 17.938 30.316 0 54.893-24.576 54.893-54.893 0-16.062-6.899-30.513-17.895-40.551l-0.043-0.039-73.169-73.138c-9.824-9.927-23.452-16.074-38.515-16.074-0.096 0-0.192 0-0.288 0.001h0.015z" />
<glyph unicode="&#xe973;" glyph-name="Youtube" d="M1013.76 652.8s-9.941 70.613-40.747 101.589c-38.997 40.789-82.603 41.003-102.613 43.392-143.189 10.411-358.187 10.411-358.187 10.411h-0.427s-214.997 0-358.187-10.411c-20.011-2.389-63.573-2.56-102.613-43.392-30.805-30.976-40.576-101.589-40.576-101.589s-10.411-82.987-10.411-165.803v-77.611c0-82.773 10.24-165.803 10.24-165.803s9.941-70.571 40.533-101.547c39.040-40.832 90.24-39.424 113.067-43.819 81.92-7.808 348.16-10.24 348.16-10.24s215.211 0.427 358.4 10.624c20.011 2.389 63.573 2.56 102.613 43.392 30.805 31.019 40.789 101.589 40.789 101.589s10.197 82.816 10.197 165.803v77.611c0 82.773-10.24 165.803-10.24 165.803zM406.187 315.179v287.829l276.608-144.427-276.608-143.36z" />
<glyph unicode="&#xe974;" glyph-name="Play_Default" horiz-adv-x="996" d="M995.556 448l-739.556-426.951v853.902l739.556-426.951z" />
<glyph unicode="&#xe975;" glyph-name="Vector" horiz-adv-x="983" d="M491.52 955.699c-271.459 0-491.52-220.061-491.52-491.52s220.061-491.52 491.52-491.52v0c271.459 0 491.52 220.061 491.52 491.52s-220.061 491.52-491.52 491.52v0zM501.76 750.899c33.932 0 61.44-27.508 61.44-61.44s-27.508-61.44-61.44-61.44v0c-33.932 0-61.44 27.508-61.44 61.44s27.508 61.44 61.44 61.44v0zM593.92 197.939h-163.84c-22.622 0-40.96 18.338-40.96 40.96s18.338 40.96 40.96 40.96v0h30.72c5.655 0 10.24 4.585 10.24 10.24v0 184.32c0 5.655-4.585 10.24-10.24 10.24v0h-30.72c-22.622 0-40.96 18.338-40.96 40.96s18.338 40.96 40.96 40.96v0h40.96c45.243 0 81.92-36.677 81.92-81.92v0-194.56c0-5.655 4.585-10.24 10.24-10.24v0h30.72c22.622 0 40.96-18.338 40.96-40.96s-18.338-40.96-40.96-40.96v0z" />
</font>
</defs>
</svg>
