<svg width="39" height="39" viewBox="0 0 39 39" fill="none" xmlns="http://www.w3.org/2000/svg">
<path fill-rule="evenodd" clip-rule="evenodd" d="M-2.55333e-05 32.311C4.13431 36.4439 9.84496 39 16.1526 39C28.7709 39 39 28.7709 39 16.1526C39 9.84496 36.4439 4.13431 32.311 -2.78724e-05L26.5658 5.74521C29.2283 8.40921 30.875 12.0886 30.875 16.1526C30.875 24.2836 24.2836 30.875 16.1526 30.875C12.0886 30.875 8.40922 29.2283 5.74522 26.5658L-2.55333e-05 32.311Z" fill="#C32D37"/>
<path fill-rule="evenodd" clip-rule="evenodd" d="M26.4967 5.81456C23.8579 3.22323 20.2407 1.62496 16.2501 1.62496C8.17293 1.62496 1.62509 8.1728 1.62509 16.25C1.62509 20.2405 3.22335 23.8578 5.81468 26.4966L11.5605 20.7508C10.4392 19.5828 9.75009 17.9969 9.75009 16.25C9.75009 12.6601 12.6602 9.74997 16.2501 9.74997C17.997 9.74997 19.583 10.4391 20.7509 11.5603L26.4967 5.81456Z" fill="#C32D37"/>
<path fill-rule="evenodd" clip-rule="evenodd" d="M20.7507 11.5602L11.5602 20.7507C12.7431 21.9829 14.407 22.75 16.25 22.75C19.8398 22.75 22.75 19.8399 22.75 16.25C22.75 14.407 21.983 12.7431 20.7507 11.5602Z" fill="#C32D37"/>
</svg>
