<svg xmlns="http://www.w3.org/2000/svg" width="7" height="9" viewBox="0 0 7 9" fill="none">
<path fill-rule="evenodd" clip-rule="evenodd" d="M3.5 0C4.24631 0 4.92504 0.291887 5.41596 0.762519H5.41496C5.90687 1.23505 6.21295 1.88348 6.21295 2.59561V3.54067H6.3004C6.68498 3.54067 7 3.84207 7 4.21097V8.33066C7 8.69861 6.68498 9 6.3004 9H0.699602C0.31502 9 0 8.69861 0 8.33066V4.21097C0 3.84302 0.31502 3.54067 0.699602 3.54067H0.787053V2.59561C0.787053 1.88348 1.09313 1.2341 1.58504 0.763469H1.58404C2.07595 0.291887 2.75369 0 3.5 0ZM5.05026 3.54067V2.59561C5.05026 2.18677 4.87635 1.81597 4.5971 1.54881H4.59512C4.31388 1.27974 3.92632 1.1124 3.50099 1.1124C3.07567 1.1124 2.6881 1.27974 2.40687 1.54881H2.40488C2.12564 1.81597 1.95173 2.18677 1.95173 2.59561V3.54067H5.05125H5.05026Z" fill="#535658"/>
</svg>