<svg xmlns="http://www.w3.org/2000/svg" width="201" height="37" viewBox="0 0 201 37" fill="none">
<path d="M24.5875 6.14068L30.7344 0H3.25195C2.39082 -2.45002e-06 1.56485 0.341202 0.955213 0.94877C0.345577 1.55634 0.0020552 2.38066 0 3.24091H0V3.59757V30.7344L6.14688 24.5937V6.14068H24.5875Z" fill="#C32D37"/>
<path d="M27.8782 12.3045V12.2812H12.2937V18.4219H21.7469L27.8782 12.3045Z" fill="#C32D37"/>
<path d="M12.2937 24.5627V30.7034H21.7313L27.8782 24.5627H12.2937Z" fill="#C32D37"/>
<path d="M48.285 13.2331H38.0749V0H48.018V2.70553H41.0044V5.25602H47.6174V7.84527H41.0044V10.512H48.285V13.2331Z" fill="#535658"/>
<path d="M60.2776 0.015564V13.1944H57.8114L57.6387 12.0083C57.2897 12.5006 56.8158 12.8936 56.2644 13.1481C55.713 13.4025 55.1035 13.5094 54.4971 13.458C51.7168 13.458 49.7847 11.4191 49.7847 8.52753C49.7847 5.50415 51.7168 3.66687 54.4971 3.66687C55.0637 3.64286 55.6281 3.75027 56.145 3.98048C56.662 4.2107 57.117 4.55731 57.4737 4.9925V0.015564H60.2776ZM52.5964 8.54303C52.5703 8.85853 52.6128 9.17588 52.7209 9.4739C52.829 9.77191 53.0002 10.0437 53.2233 10.2712C53.4463 10.4987 53.7159 10.6765 54.0141 10.793C54.3123 10.9094 54.6323 10.9616 54.9526 10.9462C55.2849 10.9739 55.6193 10.9316 55.9337 10.8222C56.2482 10.7128 56.5356 10.5388 56.7768 10.3117C57.0181 10.0845 57.2078 9.80939 57.3333 9.50451C57.4589 9.19963 57.5174 8.87191 57.5051 8.54303C57.5089 8.21645 57.4446 7.89258 57.3161 7.5916C57.1876 7.29062 56.9978 7.01896 56.7583 6.79353C56.5189 6.5681 56.235 6.39373 55.9244 6.28127C55.6137 6.16881 55.2829 6.12067 54.9526 6.13984C54.6291 6.12008 54.3052 6.17014 54.0033 6.28654C53.7014 6.40294 53.4288 6.58288 53.2045 6.81384C52.9803 7.04479 52.8097 7.32121 52.7047 7.62386C52.5997 7.92651 52.5627 8.24811 52.5964 8.56629V8.54303Z" fill="#535658"/>
<path d="M65.1079 9.51169C65.2414 10.4187 66.1289 11.1939 67.6761 11.1939C68.5589 11.2213 69.4244 10.9476 70.1265 10.4187L71.6973 12.1164C70.5651 13.0709 69.1087 13.5667 67.6211 13.5041C64.189 13.5041 62.3119 11.4963 62.3119 8.52716C62.3119 5.70534 64.2675 3.70526 67.3305 3.70526C70.5507 3.70526 72.6791 5.67433 72.0429 9.51169H65.1079ZM69.5925 7.52712C69.5375 6.51933 68.4851 6.03093 67.3305 6.03093C66.8432 5.99537 66.3581 6.12397 65.9544 6.39572C65.5507 6.66748 65.2523 7.06633 65.1079 7.52712H69.5925Z" fill="#535658"/>
<path d="M76.9123 0.015564V13.1944H74.1713V0.015564H76.9123Z" fill="#535658"/>
<path d="M85.7479 13.2329V8.22498C85.7479 6.99237 85.1353 6.18614 83.9808 6.18614C83.7306 6.20631 83.487 6.27603 83.2647 6.39114C83.0424 6.50625 82.8458 6.66438 82.6867 6.85612C82.5277 7.04785 82.4094 7.26924 82.3389 7.50709C82.2684 7.74494 82.2472 7.99436 82.2765 8.24048V13.2329H79.5198V3.93023H81.9466L82.143 4.99229C82.4073 4.58226 82.7769 4.24863 83.2142 4.02532C83.6515 3.80201 84.1409 3.69698 84.6327 3.72092C85.2207 3.69866 85.8017 3.85362 86.2983 4.1652C86.795 4.47677 87.1838 4.9302 87.413 5.46518C87.7087 4.90496 88.1632 4.44177 88.721 4.13206C89.2789 3.82235 89.9159 3.6795 90.5545 3.72092C92.5259 3.72092 94.3323 4.67445 94.3323 8.17071V13.2717H91.552V8.18621C91.552 6.99237 91.2457 6.2404 90.1147 6.2404C88.9837 6.2404 88.5439 7.16292 88.5439 8.22498V13.2329H85.7479Z" fill="#535658"/>
<path d="M104.048 3.89165H106.632V13.1943H104.142L103.985 12.0238C103.661 12.4859 103.226 12.8612 102.719 13.1156C102.212 13.3701 101.648 13.4957 101.079 13.4812C98.2437 13.4812 96.1938 11.6051 96.1938 8.52749C96.151 7.8745 96.2499 7.22002 96.4839 6.60779C96.7179 5.99557 97.0817 5.43971 97.5508 4.97738C98.0199 4.51505 98.5837 4.1569 99.2043 3.92688C99.8249 3.69687 100.488 3.60028 101.15 3.64357C101.691 3.61577 102.23 3.72343 102.717 3.95656C103.205 4.18968 103.625 4.5407 103.938 4.97696L104.048 3.89165ZM98.9505 8.54299C98.9311 8.87072 98.9822 9.19879 99.1005 9.50563C99.2187 9.81246 99.4014 10.0911 99.6366 10.3232C99.8718 10.5554 100.154 10.7357 100.465 10.8525C100.776 10.9692 101.108 11.0196 101.44 11.0005C101.781 11.0193 102.121 10.9694 102.441 10.8538C102.761 10.7382 103.054 10.5594 103.302 10.3283C103.549 10.0972 103.747 9.81859 103.882 9.50962C104.016 9.20065 104.086 8.86777 104.086 8.53136C104.086 8.19495 104.016 7.86208 103.882 7.55311C103.747 7.24414 103.549 6.96557 103.302 6.73445C103.054 6.50332 102.761 6.3245 102.441 6.20892C102.121 6.09335 101.781 6.04345 101.44 6.06227C101.104 6.04241 100.767 6.09394 100.453 6.2134C100.139 6.33286 99.8538 6.51747 99.6178 6.75478C99.3819 6.99209 99.2002 7.27658 99.0851 7.58907C98.97 7.90155 98.9241 8.23477 98.9505 8.56625V8.54299Z" fill="#535658"/>
<path d="M116.025 13.2333V8.30291C116.025 6.84549 115.373 6.12453 114.069 6.12453C113.775 6.1303 113.484 6.19469 113.215 6.31383C112.946 6.43297 112.705 6.60443 112.504 6.81793C112.304 7.03144 112.15 7.2826 112.05 7.55641C111.951 7.83021 111.908 8.12102 111.925 8.41144V13.2333H109.2V3.93064H111.689L111.792 5.12449C112.144 4.65795 112.608 4.28538 113.143 4.0404C113.678 3.79543 114.266 3.68577 114.855 3.72133C116.983 3.72133 118.782 4.67486 118.782 8.31841V13.2721L116.025 13.2333Z" fill="#535658"/>
<path d="M38.0749 30.6916V17.474H47.8452V20.1795H41.0594V23.2804H47.3897V25.9084H41.028V30.6528L38.0749 30.6916Z" fill="#535658"/>
<path d="M50.8136 17.3802C51.1243 17.3802 51.428 17.4711 51.6863 17.6415C51.9446 17.8118 52.146 18.054 52.2648 18.3373C52.3837 18.6206 52.4148 18.9323 52.3542 19.2331C52.2936 19.5338 52.144 19.8101 51.9243 20.0269C51.7047 20.2438 51.4248 20.3914 51.1201 20.4513C50.8154 20.5111 50.4995 20.4804 50.2125 20.363C49.9255 20.2457 49.6802 20.047 49.5076 19.792C49.335 19.537 49.2428 19.2373 49.2428 18.9306C49.2315 18.7241 49.2644 18.5175 49.3393 18.3243C49.4142 18.1311 49.5295 17.9557 49.6777 17.8094C49.8259 17.6631 50.0036 17.5493 50.1994 17.4754C50.3951 17.4014 50.6044 17.369 50.8136 17.3802ZM52.1959 21.3726V30.6908H49.4392V21.3338L52.1959 21.3726Z" fill="#535658"/>
<path d="M61.1418 30.6907V25.7603C61.1418 24.3029 60.4899 23.5819 59.1862 23.5819C58.8883 23.5885 58.5949 23.6548 58.3238 23.7767C58.0527 23.8986 57.8095 24.0736 57.609 24.2911C57.4085 24.5086 57.2549 24.764 57.1574 25.0419C57.0599 25.3198 57.0207 25.6143 57.042 25.9076V30.7295H54.3246V21.3493H56.8143L56.9085 22.5431C57.2608 22.077 57.7255 21.7051 58.2605 21.4614C58.7954 21.2177 59.3836 21.1099 59.9716 21.1477C62.1 21.1477 63.8985 22.0935 63.8985 25.7371V30.6907H61.1418Z" fill="#535658"/>
<path d="M73.2368 21.3499H75.8208V30.6914H73.3075L73.1504 29.5208C72.8257 29.9836 72.3892 30.3591 71.8804 30.6136C71.3717 30.8681 70.8067 30.9934 70.2366 30.9782C67.4013 30.9782 65.3593 29.1099 65.3593 26.0245C65.3164 25.3719 65.4153 24.7177 65.6493 24.1058C65.8834 23.4939 66.2473 22.9385 66.7166 22.4768C67.1859 22.0151 67.7497 21.6577 68.3704 21.4285C68.991 21.1994 69.6541 21.1039 70.3152 21.1484C70.854 21.1074 71.3944 21.2043 71.8842 21.4297C72.374 21.6551 72.7966 22.0015 73.1112 22.4352L73.2368 21.3499ZM68.1396 26.0013C68.1202 26.329 68.1713 26.6571 68.2896 26.9639C68.4078 27.2707 68.5905 27.5494 68.8257 27.7815C69.0609 28.0137 69.3432 28.194 69.6541 28.3107C69.9649 28.4275 70.2973 28.4779 70.6293 28.4587C70.9696 28.4776 71.3102 28.4277 71.6303 28.3121C71.9504 28.1965 72.2432 28.0177 72.4908 27.7866C72.7385 27.5554 72.9358 27.2769 73.0706 26.9679C73.2054 26.6589 73.2749 26.3261 73.2749 25.9896C73.2749 25.6532 73.2054 25.3204 73.0706 25.0114C72.9358 24.7024 72.7385 24.4239 72.4908 24.1927C72.2432 23.9616 71.9504 23.7828 71.6303 23.6672C71.3102 23.5516 70.9696 23.5017 70.6293 23.5206C70.293 23.5007 69.9564 23.5522 69.642 23.6717C69.3276 23.7911 69.0429 23.9758 68.8069 24.2131C68.571 24.4504 68.3893 24.7349 68.2742 25.0474C68.1591 25.3598 68.1132 25.6931 68.1396 26.0245V26.0013Z" fill="#535658"/>
<path d="M84.7661 30.6916V25.7612C84.7661 24.3037 84.1142 23.5828 82.8183 23.5828C82.5198 23.5883 82.2256 23.6538 81.9536 23.7753C81.6815 23.8967 81.4374 24.0716 81.2361 24.2892C81.0347 24.5068 80.8804 24.7626 80.7824 25.041C80.6845 25.3193 80.645 25.6145 80.6664 25.9084V30.7303H77.9489V21.3501H80.4386L80.5328 22.544C80.8868 22.0777 81.353 21.7059 81.8892 21.4623C82.4254 21.2186 83.0147 21.1108 83.6037 21.1486C85.7243 21.1486 87.5307 22.0943 87.5307 25.7379V30.6916H84.7661Z" fill="#535658"/>
<path d="M97.8589 29.5053C97.3843 29.9979 96.8091 30.3853 96.1713 30.6419C95.5336 30.8985 94.8479 31.0185 94.1597 30.9938C91.403 30.9938 88.9839 29.4433 88.9839 26.0789C88.9839 22.978 91.3401 21.1484 94.144 21.1484C94.7786 21.0982 95.4164 21.1907 96.0095 21.419C96.6027 21.6473 97.1356 22.0054 97.5683 22.4663L96.0368 24.1873C95.5215 23.8131 94.8932 23.6218 94.2539 23.6447C93.924 23.6258 93.5937 23.6756 93.2846 23.791C92.9754 23.9063 92.6943 24.0846 92.4595 24.3141C92.2247 24.5437 92.0415 24.8195 91.9217 25.1235C91.8019 25.4275 91.7483 25.753 91.7642 26.0789C91.7641 26.3909 91.8275 26.6998 91.9508 26.9871C92.0741 27.2745 92.2547 27.5344 92.4819 27.7514C92.7091 27.9684 92.9782 28.138 93.2731 28.2503C93.5681 28.3625 93.883 28.4149 94.199 28.4045C94.9009 28.401 95.5792 28.154 96.1153 27.7068L97.8589 29.5053Z" fill="#535658"/>
<path d="M100.443 17.3802C100.753 17.3802 101.057 17.4711 101.315 17.6415C101.574 17.8118 101.775 18.054 101.894 18.3373C102.013 18.6206 102.044 18.9323 101.983 19.2331C101.923 19.5338 101.773 19.8101 101.553 20.0269C101.334 20.2438 101.054 20.3914 100.749 20.4513C100.444 20.5111 100.129 20.4804 99.8415 20.363C99.5545 20.2457 99.3092 20.047 99.1366 19.792C98.964 19.537 98.8719 19.2373 98.8719 18.9306C98.8605 18.7241 98.8934 18.5175 98.9683 18.3243C99.0433 18.1311 99.1586 17.9557 99.3068 17.8094C99.4549 17.6631 99.6327 17.5493 99.8284 17.4754C100.024 17.4014 100.233 17.369 100.443 17.3802ZM101.825 21.3726V30.6908H99.0682V21.3338L101.825 21.3726Z" fill="#535658"/>
<path d="M111.265 21.3499H113.857V30.6913H111.367L111.21 29.5207C110.885 29.983 110.449 30.3582 109.94 30.6126C109.431 30.867 108.867 30.9926 108.297 30.9782C105.461 30.9782 103.411 29.1099 103.411 26.0245C103.37 25.3714 103.47 24.7171 103.705 24.1052C103.94 23.4934 104.304 22.9381 104.774 22.4765C105.244 22.0149 105.808 21.6576 106.429 21.4286C107.05 21.1995 107.714 21.104 108.375 21.1483C108.914 21.1073 109.454 21.2042 109.944 21.4297C110.434 21.6551 110.857 22.0014 111.171 22.4352L111.265 21.3499ZM106.176 26.0012C106.153 26.3295 106.201 26.6587 106.317 26.9672C106.433 27.2757 106.614 27.5565 106.848 27.791C107.081 28.0254 107.363 28.2082 107.674 28.3274C107.984 28.4465 108.317 28.4992 108.65 28.4819C109.005 28.5303 109.366 28.5031 109.709 28.4021C110.052 28.3012 110.369 28.1288 110.639 27.8967C110.909 27.6645 111.125 27.378 111.273 27.0564C111.421 26.7348 111.498 26.3856 111.498 26.0322C111.498 25.6789 111.421 25.3297 111.273 25.008C111.125 24.6864 110.909 24.3999 110.639 24.1678C110.369 23.9357 110.052 23.7633 109.709 23.6624C109.366 23.5614 109.005 23.5342 108.65 23.5825C108.321 23.5658 107.991 23.6175 107.684 23.7344C107.376 23.8512 107.096 24.0305 106.863 24.2606C106.63 24.4908 106.448 24.7667 106.33 25.0706C106.211 25.3744 106.159 25.6994 106.176 26.0245V26.0012Z" fill="#535658"/>
<path d="M118.766 17.474V30.6916H116.025V17.474H118.766Z" fill="#535658"/>
<path d="M135.793 30.6915H125.583V17.4584H135.526V20.164H128.513V22.7144H135.126V25.3037H128.513V27.9705H135.793V30.6915Z" fill="#535658"/>
<path d="M144.307 30.691V25.7606C144.307 24.3032 143.655 23.5822 142.351 23.5822C142.053 23.5877 141.759 23.6532 141.487 23.7747C141.216 23.8963 140.972 24.0713 140.771 24.289C140.57 24.5067 140.417 24.7626 140.32 25.041C140.223 25.3193 140.184 25.6143 140.207 25.9079V30.7298H137.482V21.3495H139.971L140.073 22.5434C140.425 22.0767 140.89 21.7045 141.425 21.4607C141.96 21.2169 142.548 21.1094 143.136 21.148C145.265 21.148 147.063 22.0938 147.063 25.7373V30.691H144.307Z" fill="#535658"/>
<path d="M151.242 32.0402C151.336 33.4744 152.334 33.9318 153.598 33.9318C154.863 33.9318 155.954 33.3581 155.954 32.2108C155.954 31.3038 155.358 30.5983 153.653 30.5983C150.512 30.5983 148.54 28.7843 148.54 25.8927C148.54 22.7375 151.014 21.1251 153.653 21.1251C154.429 21.0793 155.201 21.257 155.876 21.6367L156.913 20.3111L158.915 21.8228L157.706 23.2414C158.354 23.9802 158.698 24.9314 158.672 25.9082C158.676 26.5855 158.488 27.2504 158.13 27.8283C157.772 28.4062 157.258 28.8742 156.646 29.1797C157.28 29.3866 157.829 29.7923 158.209 30.3351C158.589 30.878 158.779 31.5284 158.75 32.1875C158.75 34.9628 156.206 36.304 153.614 36.304C150.323 36.304 148.619 34.7535 148.674 32.017L151.242 32.0402ZM151.242 25.8927C151.241 26.2022 151.305 26.5086 151.43 26.7924C151.556 27.0761 151.739 27.3311 151.97 27.541C152.2 27.751 152.472 27.9113 152.769 28.0119C153.065 28.1125 153.38 28.1512 153.692 28.1254C154 28.1472 154.308 28.1052 154.597 28.002C154.887 27.8988 155.151 27.7367 155.374 27.5262C155.596 27.3158 155.771 27.0616 155.887 26.7802C156.003 26.4988 156.058 26.1965 156.049 25.8927C156.049 25.2759 155.8 24.6844 155.359 24.2482C154.917 23.8121 154.317 23.567 153.692 23.567C153.367 23.5341 153.039 23.5711 152.73 23.6754C152.42 23.7798 152.138 23.949 151.901 24.1715C151.665 24.394 151.48 24.6645 151.359 24.9643C151.239 25.2641 151.185 25.5861 151.203 25.9082L151.242 25.8927Z" fill="#535658"/>
<path d="M161.861 17.3802C162.171 17.3802 162.475 17.4711 162.733 17.6415C162.992 17.8118 163.193 18.054 163.312 18.3373C163.431 18.6206 163.462 18.9323 163.401 19.2331C163.341 19.5338 163.191 19.8101 162.971 20.0269C162.752 20.2438 162.472 20.3914 162.167 20.4513C161.862 20.5111 161.547 20.4804 161.26 20.363C160.972 20.2457 160.727 20.047 160.555 19.792C160.382 19.537 160.29 19.2373 160.29 18.9306C160.279 18.7241 160.311 18.5175 160.386 18.3243C160.461 18.1311 160.577 17.9557 160.725 17.8094C160.873 17.6631 161.051 17.5493 161.246 17.4754C161.442 17.4014 161.651 17.369 161.861 17.3802ZM163.235 21.3726V30.6908H160.486V21.3338L163.235 21.3726Z" fill="#535658"/>
<path d="M172.188 30.6916V25.7612C172.188 24.3037 171.536 23.5828 170.233 23.5828C169.935 23.5883 169.641 23.6538 169.369 23.7753C169.097 23.8969 168.854 24.0718 168.653 24.2896C168.452 24.5073 168.299 24.7632 168.202 25.0415C168.105 25.3199 168.066 25.6149 168.089 25.9084V30.7303H165.363V21.3501H167.853L167.947 22.544C168.301 22.0777 168.767 21.7059 169.304 21.4623C169.84 21.2186 170.429 21.1108 171.018 21.1486C173.139 21.1486 174.945 22.0943 174.945 25.7379V30.6916H172.188Z" fill="#535658"/>
<path d="M179.218 26.9701C179.351 27.8771 180.231 28.6524 181.786 28.6524C182.664 28.6947 183.531 28.4344 184.236 27.9159L185.807 29.6136C184.676 30.5595 183.227 31.052 181.747 30.9935C178.314 30.9935 176.437 28.9547 176.437 25.9856C176.437 23.1715 178.393 21.1637 181.456 21.1637C184.676 21.1637 186.797 23.1328 186.168 26.9701H179.218ZM183.702 24.9855C183.639 23.9855 182.587 23.4894 181.44 23.4894C180.953 23.4538 180.468 23.5824 180.064 23.8541C179.66 24.1259 179.362 24.5247 179.218 24.9855H183.702Z" fill="#535658"/>
<path d="M193.763 24.0166C193.105 23.565 192.318 23.334 191.517 23.3576C190.622 23.3576 190.158 23.6755 190.158 24.1328C190.158 24.5902 190.622 24.9081 191.556 24.9081C193.394 24.9701 195.68 25.3499 195.68 27.9159C195.68 29.3734 194.549 31.0168 191.541 31.0168C189.914 31.0693 188.327 30.5159 187.095 29.4664L188.281 27.5826C189.218 28.3201 190.382 28.7194 191.58 28.7144C192.365 28.7144 193.017 28.4121 192.994 27.9392C192.97 27.4663 192.672 27.164 191.384 27.1097C189.624 27.0554 187.457 26.3345 187.457 24.1251C187.457 21.9157 189.467 21.1327 191.541 21.1327C192.858 21.0736 194.151 21.5053 195.161 22.3421L193.763 24.0166Z" fill="#535658"/>
<path d="M198.884 21.0631C198.46 21.0585 198.045 21.1783 197.691 21.4071C197.336 21.636 197.059 21.9637 196.893 22.3486C196.728 22.7334 196.682 23.1581 196.762 23.5687C196.842 23.9792 197.043 24.3571 197.341 24.6543C197.639 24.9516 198.02 25.1547 198.435 25.238C198.85 25.3212 199.28 25.2809 199.672 25.122C200.064 24.9631 200.399 24.6928 200.635 24.3456C200.87 23.9984 200.996 23.5898 200.996 23.1717C201.013 22.8925 200.97 22.6128 200.87 22.351C200.771 22.0892 200.616 21.8511 200.417 21.6522C200.217 21.4532 199.978 21.298 199.714 21.1965C199.45 21.095 199.167 21.0496 198.884 21.0631ZM198.884 24.8152C198.666 24.8267 198.449 24.7913 198.246 24.7114C198.044 24.6315 197.862 24.5091 197.713 24.3527C197.563 24.1963 197.45 24.0097 197.381 23.8057C197.312 23.6018 197.289 23.3854 197.313 23.1717C197.331 22.8697 197.439 22.5796 197.622 22.3372C197.806 22.0947 198.057 21.9105 198.345 21.8073C198.633 21.7041 198.946 21.6864 199.244 21.7563C199.542 21.8262 199.813 21.9807 200.023 22.2008C200.234 22.4209 200.374 22.6969 200.428 22.9949C200.481 23.2928 200.445 23.5997 200.324 23.8776C200.203 24.1555 200.002 24.3924 199.746 24.559C199.49 24.7256 199.19 24.8147 198.884 24.8152Z" fill="#535658"/>
<path d="M199.088 22.0319H198.075V24.1793H198.554V23.5048H198.868L199.418 24.2103H199.936V24.1095L199.363 23.435C199.551 23.3991 199.718 23.2906 199.825 23.1336C199.933 22.9766 199.973 22.7839 199.936 22.5978C199.9 22.4117 199.79 22.2476 199.631 22.1414C199.472 22.0353 199.276 21.9959 199.088 22.0319ZM199.088 23.0707H198.562V22.4738H199.096C199.138 22.4748 199.179 22.4839 199.217 22.5006C199.255 22.5174 199.29 22.5413 199.318 22.5712C199.347 22.6011 199.37 22.6363 199.385 22.6747C199.4 22.7132 199.407 22.7543 199.406 22.7955C199.405 22.8367 199.396 22.8773 199.379 22.915C199.362 22.9527 199.338 22.9868 199.307 23.0152C199.277 23.0437 199.241 23.0659 199.202 23.0808C199.163 23.0956 199.122 23.1027 199.08 23.1017L199.088 23.0707Z" fill="#535658"/>
</svg>